<?xml version="1.0" encoding="UTF-8"?>
<svg width="496px" height="312px" viewBox="0 0 496 312" version="1.1" xmlns="http://www.w3.org/2000/svg" xmlns:xlink="http://www.w3.org/1999/xlink">
    <!-- Generator: Sketch 64 (93537) - https://sketch.com -->
    <title>1</title>
    <desc>Created with Sketch.</desc>
    <g id="Page-1" stroke="none" stroke-width="1" fill="none" fill-rule="evenodd">
        <g id="1" fill="#8588A2" fill-rule="nonzero">
            <path d="M104,232 C90.745166,232 80,242.745166 80,256 C80,269.254834 90.745166,280 104,280 C117.254834,280 128,269.254834 128,256 C127.98512,242.751334 117.248666,232.01488 104,232 Z M104,264 C99.581722,264 96,260.418278 96,256 C96,251.581722 99.581722,248 104,248 C108.418278,248 112,251.581722 112,256 C111.99504,260.416222 108.416222,263.99504 104,264 L104,264 Z" id="Shape"></path>
            <path d="M400,232 C386.745166,232 376,242.745166 376,256 C376,269.254834 386.745166,280 400,280 C413.254834,280 424,269.254834 424,256 C423.98512,242.751334 413.248666,232.01488 400,232 L400,232 Z M400,264 C395.581722,264 392,260.418278 392,256 C392,251.581722 395.581722,248 400,248 C404.418278,248 408,251.581722 408,256 C407.99504,260.416222 404.416222,263.99504 400,264 L400,264 Z" id="Shape"></path>
            <path d="M464,136 L421.91,136 L395.99,51.77 C392.418126,39.9911348 381.538443,31.9533418 369.23,32 L318.25,32 L311.76,6.06 C310.86988,2.4989631 307.670599,0 304,0 L241,0 C237.329401,0 234.13012,2.4989631 233.24,6.06 L226.75,32 L165.74,32 C154.166119,32.043848 143.797349,39.163948 139.6,49.95 L106.51,136 L68,136 C32.8290144,136.045471 3.4821694,162.874147 0.29,197.9 C0.101354255,198.584191 0,199.290289 0,200 L0,236 C0.0170846292,251.456891 12.5431092,263.982915 28,264 L48.58,264 C52.5554125,291.550082 76.1645746,311.997023 104,311.997023 C131.835425,311.997023 155.444587,291.550082 159.42,264 L344.58,264 C348.555413,291.550082 372.164575,311.997023 400,311.997023 C427.835425,311.997023 451.444587,291.550082 455.42,264 L468,264 C483.456891,263.982915 495.982915,251.456891 496,236 L496,168 C495.983461,150.333743 481.666257,136.016539 464,136 Z M405.17,136 L296,136 L296,72 L385.48,72 L405.17,136 Z M247.25,16 L297.75,16 L301.75,32 L243.25,32 L247.25,16 Z M154.54,55.69 C156.339562,51.0696268 160.781584,48.0197028 165.74,47.9999389 L369.23,47.9999389 C374.317356,47.9837882 378.85499,51.1962724 380.53,56 L154.42,56 L154.54,55.69 Z M16,208 L24,208 L24,216 L16,216 L16,208 Z M104,296 C81.90861,296 64,278.09139 64,256 C64,233.90861 81.90861,216 104,216 C126.09139,216 144,233.90861 144,256 C143.977951,278.08225 126.08225,295.977951 104,296 L104,296 Z M280,248 L159.42,248 C155.444587,220.449918 131.835425,200.002977 104,200.002977 C76.1645746,200.002977 52.5554125,220.449918 48.58,248 L28,248 C21.3748683,247.994486 16.0055141,242.625132 16,236 L16,232 L32,232 C36.418278,232 40,228.418278 40,224 L40,200 C40,195.581722 36.418278,192 32,192 L17.41,192 C23.0026891,168.57738 43.9189756,152.039498 68,152 L280,152 L280,248 Z M280,136 L123.65,136 L148.26,72 L280,72 L280,136 Z M400,296 C377.90861,296 360,278.09139 360,256 C360,233.90861 377.90861,216 400,216 C422.09139,216 440,233.90861 440,256 C439.977951,278.08225 422.08225,295.977951 400,296 L400,296 Z M480,216 L472,216 L472,208 L480,208 L480,216 Z M480,192 L464,192 C459.581722,192 456,195.581722 456,200 L456,224 C456,228.418278 459.581722,232 464,232 L480,232 L480,236 C479.994486,242.625132 474.625132,247.994486 468,248 L455.42,248 C451.444587,220.449918 427.835425,200.002977 400,200.002977 C372.164575,200.002977 348.555413,220.449918 344.58,248 L296,248 L296,152 L464,152 C472.83176,152.011569 479.988431,159.16824 480,168 L480,192 Z" id="Shape"></path>
            <path d="M232,176 L264,176 C268.418278,176 272,172.418278 272,168 C272,163.581722 268.418278,160 264,160 L232,160 C227.581722,160 224,163.581722 224,168 C224,172.418278 227.581722,176 232,176 Z" id="Path"></path>
            <path d="M344,160 L312,160 C307.581722,160 304,163.581722 304,168 C304,172.418278 307.581722,176 312,176 L344,176 C348.418278,176 352,172.418278 352,168 C352,163.581722 348.418278,160 344,160 Z" id="Path"></path>
        </g>
    </g>
</svg>