<?xml version="1.0" encoding="UTF-8"?>
<svg width="496px" height="432px" viewBox="0 0 496 432" version="1.1" xmlns="http://www.w3.org/2000/svg" xmlns:xlink="http://www.w3.org/1999/xlink">
    <!-- Generator: Sketch 64 (93537) - https://sketch.com -->
    <title>2</title>
    <desc>Created with Sketch.</desc>
    <g id="Page-1" stroke="none" stroke-width="1" fill="none" fill-rule="evenodd">
        <g id="2" fill="#8588A2" fill-rule="nonzero">
            <path d="M488,376 L424,376 L424,352 C424,347.581722 420.418278,344 416,344 L272,344 L272,328 L472,328 C476.418278,328 480,324.418278 480,320 L480,288 C480.007056,162.982901 380.943216,60.4474053 256,56.15 L256,48 L288,48 C292.418278,48 296,44.418278 296,40 L296,8 C296,3.581722 292.418278,0 288,0 L208,0 C203.581722,0 200,3.581722 200,8 L200,40 C200,44.418278 203.581722,48 208,48 L240,48 L240,56.15 C115.056784,60.4474053 15.9929445,162.982901 16,288 L16,320 C16,324.418278 19.581722,328 24,328 L224,328 L224,344 L80,344 C75.581722,344 72,347.581722 72,352 L72,376 L8,376 C3.581722,376 2.84217094e-14,379.581722 2.84217094e-14,384 L2.84217094e-14,424 C2.84217094e-14,428.418278 3.581722,432 8,432 L488,432 C492.418278,432 496,428.418278 496,424 L496,384 C496,379.581722 492.418278,376 488,376 Z M216,32 L216,16 L280,16 L280,32 L216,32 Z M32,312 L32,288 C32,200.636409 84.6301539,121.876275 165.343364,88.4431355 C246.056575,55.0099963 338.961775,73.487449 400.74,135.26 C441.376773,175.683217 464.155478,230.681943 464.000791,288 L464.000791,312 L32,312 Z M256,328 L256,344 L240,344 L240,328 L256,328 Z M88,360 L408,360 L408,376 L88,376 L88,360 Z M480,416 L16,416 L16,392 L480,392 L480,416 Z" id="Shape"></path>
        </g>
    </g>
</svg>