<?xml version="1.0" encoding="UTF-8"?>
<svg xmlns="http://www.w3.org/2000/svg" xmlns:xlink="http://www.w3.org/1999/xlink" width="883.607pt" height="990.444pt" viewBox="0 0 883.607 990.444" version="1.1">
<g id="surface1">
<path style=" stroke:none;fill-rule:nonzero;fill:rgb(85.499573%,85.499573%,85.499573%);fill-opacity:1;" d="M 126.472656 643.464844 C 104.667969 634.488281 85.175781 626.441406 65.667969 618.445313 C 55.691406 614.359375 45.636719 610.460938 35.6875 606.308594 C 14.828125 597.601563 5.882813 579.394531 13.121094 560.648438 C 20.746094 540.910156 39.320313 532.78125 61.023438 541.28125 C 103.175781 557.792969 145.160156 574.765625 186.847656 592.417969 C 197.953125 597.121094 206.285156 596.394531 216.539063 590.066406 C 264.847656 560.246094 313.683594 531.28125 362.304688 501.960938 C 373.304688 495.324219 373.316406 495.125 362.539063 488.636719 C 311.738281 458.066406 260.855469 427.632813 210.132813 396.933594 C 204.273438 393.386719 199.222656 393.214844 192.972656 395.789063 C 152.449219 412.492188 111.804688 428.914063 71.167969 445.347656 C 65.183594 447.765625 59.195313 450.613281 52.929688 451.796875 C 33.609375 455.441406 17.847656 445.515625 12.117188 426.859375 C 7.074219 410.441406 15.367188 392.785156 32.59375 385.484375 C 59.058594 374.265625 85.820313 363.753906 112.429688 352.878906 C 116.347656 351.277344 120.675781 350.394531 124.835938 346.167969 C 117.96875 341.859375 111.472656 337.664063 104.859375 333.660156 C 83.339844 320.640625 61.613281 307.953125 40.273438 294.640625 C 21.671875 283.039063 16.066406 263.1875 25.960938 246.550781 C 36.289063 229.183594 56.824219 223.851563 75.683594 234.679688 C 100.296875 248.8125 124.40625 263.820313 148.828125 278.292969 C 152.699219 280.585938 156.171875 284.09375 162.429688 284.015625 C 160.160156 261.34375 157.90625 238.992188 155.703125 216.636719 C 154.574219 205.210938 152.8125 193.785156 152.617188 182.339844 C 152.28125 162.980469 166.882813 147.449219 185.503906 146.160156 C 203.074219 144.945313 219.683594 158.589844 221.832031 177.554688 C 227.199219 224.984375 232.082031 272.476563 236.675781 319.988281 C 237.445313 327.945313 240.078125 333.261719 246.984375 337.390625 C 296.644531 367.070313 346.140625 397.019531 395.742188 426.804688 C 406.003906 432.96875 406.800781 432.496094 406.8125 420.644531 C 406.863281 362.78125 406.753906 304.917969 406.933594 247.054688 C 406.957031 239.925781 404.710938 235.101563 398.84375 230.757813 C 361.882813 203.382813 325.183594 175.652344 288.386719 148.0625 C 278.992188 141.015625 270.644531 133.207031 269.101563 120.703125 C 267.230469 105.585938 273.085938 93.757813 285.804688 85.902344 C 298.289063 78.191406 311.484375 78.589844 323.332031 87.144531 C 346.925781 104.175781 369.992188 121.941406 393.445313 139.175781 C 396.972656 141.769531 400.378906 147.515625 405.011719 145.09375 C 408.859375 143.082031 406.746094 137.160156 406.765625 133.003906 C 406.90625 104.96875 406.75 76.9375 406.878906 48.902344 C 406.980469 27.164063 421.585938 11.84375 441.800781 11.929688 C 461.871094 12.015625 476.238281 27.445313 476.324219 49.328125 C 476.4375 78.441406 476.316406 107.550781 476.425781 136.664063 C 476.4375 139.710938 474.964844 143.867188 478.449219 145.492188 C 481.871094 147.09375 484.1875 143.320313 486.636719 141.507813 C 510.296875 123.945313 533.691406 106.023438 557.515625 88.6875 C 572.363281 77.878906 588.828125 78.238281 601.285156 88.574219 C 618.375 102.746094 619.660156 126.414063 602.558594 141.21875 C 586.296875 155.296875 568.535156 167.652344 551.335938 180.640625 C 528.972656 197.535156 506.625 214.457031 484.023438 231.023438 C 478.492188 235.074219 476.257813 239.648438 476.277344 246.402344 C 476.4375 304.984375 476.445313 363.566406 476.28125 422.148438 C 476.253906 430.65625 478.378906 432.410156 486.019531 427.789063 C 536.449219 397.296875 586.992188 366.988281 637.585938 336.765625 C 643.0625 333.496094 645.644531 329.242188 646.253906 322.941406 C 650.558594 278.28125 655.054688 233.644531 659.550781 189.003906 C 659.984375 184.71875 660.699219 180.449219 661.53125 176.226563 C 665.390625 156.609375 680.539063 145.691406 700.792969 147.828125 C 717.746094 149.613281 731.75 164.902344 730.480469 183.03125 C 728.300781 214.167969 724.617188 245.199219 721.597656 276.277344 C 721.359375 278.695313 719.535156 281.699219 721.777344 283.429688 C 724.640625 285.636719 727.117188 282.578125 729.394531 281.222656 C 753.785156 266.699219 778.085938 252.023438 802.441406 237.441406 C 811.140625 232.234375 819.996094 227.488281 830.75 229.136719 C 845.910156 231.460938 857.285156 241.726563 860.726563 256.292969 C 864.011719 270.210938 858.769531 284.53125 845.832031 292.640625 C 820.566406 308.480469 794.847656 323.59375 769.371094 339.101563 C 765.808594 341.265625 761.511719 342.613281 758.785156 347.695313 C 773.21875 353.632813 787.375 359.46875 801.539063 365.277344 C 817.496094 371.820313 833.5625 378.109375 849.40625 384.921875 C 868.648438 393.199219 876.996094 411.671875 870.097656 429.703125 C 862.859375 448.605469 844.242188 457.605469 824.21875 449.824219 C 779.679688 432.507813 735.46875 414.34375 691.308594 396.078125 C 683.816406 392.980469 678.171875 393.554688 671.335938 397.71875 C 621.3125 428.1875 571.050781 458.261719 520.898438 488.515625 C 509.945313 495.117188 509.9375 495.320313 520.734375 501.820313 C 571.535156 532.394531 622.417969 562.832031 673.140625 593.535156 C 679.011719 597.085938 684.078125 597.222656 690.308594 594.652344 C 730.839844 577.949219 771.480469 561.515625 812.113281 545.054688 C 820.066406 541.835938 827.757813 537.953125 836.769531 537.941406 C 853.996094 537.925781 867.582031 547.855469 871.84375 564.140625 C 875.84375 579.425781 868.945313 595.554688 854.113281 603.171875 C 844.234375 608.246094 833.734375 612.132813 823.421875 616.335938 C 805.121094 623.800781 786.730469 631.035156 768.445313 638.53125 C 765.28125 639.832031 761.453125 640.265625 758.792969 644.65625 C 779.988281 657.515625 801.082031 670.296875 822.164063 683.097656 C 829.84375 687.761719 837.671875 692.199219 845.125 697.203125 C 861.796875 708.390625 866.671875 728.359375 856.9375 744.339844 C 847.265625 760.21875 826.671875 766.339844 809.695313 756.8125 C 784.636719 742.75 760.265625 727.46875 735.511719 712.859375 C 731.300781 710.375 726.523438 704.6875 722.5 707.054688 C 718.058594 709.664063 721.882813 716.316406 722.300781 721.027344 C 724.585938 746.761719 727.203125 772.476563 730.234375 798.140625 C 733.414063 825.082031 718.460938 843.761719 693.886719 842.757813 C 676.464844 842.050781 663.789063 831.203125 661.445313 812.585938 C 657.269531 779.476563 654.164063 746.230469 650.691406 713.035156 C 649.046875 697.328125 647.542969 681.605469 646.078125 665.878906 C 645.5625 660.363281 642.734375 656.734375 638.058594 653.9375 C 587.175781 623.5 536.308594 593.03125 485.542969 562.402344 C 478.378906 558.078125 476.285156 559.828125 476.300781 567.757813 C 476.4375 627.058594 476.449219 686.359375 476.296875 745.660156 C 476.28125 752.316406 479.585938 756.050781 484.484375 759.703125 C 521.363281 787.1875 558.105469 814.855469 594.902344 842.445313 C 603.996094 849.261719 612.144531 856.816406 613.941406 868.789063 C 616.199219 883.8125 610.769531 895.867188 598.183594 904.023438 C 585.480469 912.261719 571.996094 912.027344 559.746094 903.222656 C 536.996094 886.867188 514.796875 869.742188 492.191406 853.175781 C 487.796875 849.957031 483.46875 842.816406 478.164063 845.597656 C 473.828125 847.875 476.472656 855.558594 476.4375 860.808594 C 476.257813 887.765625 476.457031 914.71875 476.316406 941.675781 C 476.203125 963.320313 461.449219 978.660156 441.238281 978.515625 C 421.617188 978.367188 407.003906 963.023438 406.886719 942.03125 C 406.730469 914.71875 406.972656 887.402344 406.722656 860.089844 C 406.675781 854.96875 409.625 847.726563 404.449219 845.1875 C 400.164063 843.089844 396.023438 849.378906 392.113281 852.269531 C 369.859375 868.707031 347.957031 885.628906 325.546875 901.84375 C 310.351563 912.84375 293.464844 912.109375 280.976563 901.035156 C 263.023438 885.113281 264.699219 860.824219 285.484375 844.6875 C 306.484375 828.382813 327.984375 812.71875 349.257813 796.761719 C 365.640625 784.46875 381.859375 771.953125 398.460938 759.960938 C 404.25 755.777344 406.972656 751.148438 406.945313 743.859375 C 406.734375 685.636719 406.867188 627.410156 406.804688 569.191406 C 406.789063 557.972656 405.984375 557.503906 396.148438 563.40625 C 346.238281 593.367188 296.425781 623.492188 246.472656 653.386719 C 239.917969 657.308594 237.457031 662.46875 236.71875 669.988281 C 232.011719 717.851563 227.273438 765.71875 221.582031 813.46875 C 219.273438 832.796875 202.148438 845.933594 184.71875 844.210938 C 165.210938 842.28125 152.164063 827 152.484375 806.394531 C 152.523438 803.882813 152.683594 801.367188 152.941406 798.867188 C 155.867188 770.304688 158.828125 741.742188 161.765625 713.179688 C 161.980469 711.09375 163.339844 708.589844 161.484375 707.035156 C 158.984375 704.941406 156.804688 707.453125 154.800781 708.648438 C 130.113281 723.378906 105.476563 738.191406 80.820313 752.972656 C 73.691406 757.246094 66.496094 760.953125 57.738281 760.960938 C 41.554688 760.980469 28.140625 752.289063 23.476563 738.132813 C 18.332031 722.507813 23.265625 706.628906 37.511719 697.6875 C 62.464844 682.023438 87.886719 667.105469 113.097656 651.855469 C 116.753906 649.640625 120.34375 647.3125 126.472656 643.464844 "/>
</g>
</svg>
