<?xml version="1.0" encoding="UTF-8"?>
<svg width="463px" height="404px" viewBox="0 0 463 404" version="1.1" xmlns="http://www.w3.org/2000/svg" xmlns:xlink="http://www.w3.org/1999/xlink">
    <!-- Generator: Sketch 64 (93537) - https://sketch.com -->
    <title>phone</title>
    <desc>Created with Sketch.</desc>
    <g id="Page-1" stroke="none" stroke-width="1" fill="none" fill-rule="evenodd">
        <g id="Artboard" transform="translate(-17.000000, -46.000000)" fill="#8588A2" fill-rule="nonzero">
            <g id="phone" transform="translate(17.000000, 46.000000)">
                <path d="M357.563742,170.385292 C349.157392,155.33982 332.835938,146 314.986467,146 L149.014437,146 C131.165872,146 114.843513,155.340684 106.437163,170.385292 L44.6732909,280.965236 C40.9604563,287.623701 39,295.119226 39,302.642394 L39,367.14261 C39,387.46959 56.3211333,404 77.6002714,404 L386.399729,404 C407.678867,404 425,387.470454 425,367.14261 L425,302.642394 C425,295.12009 423.039544,287.624565 419.326709,280.956597 L357.563742,170.385292 Z M405.700317,367.141746 C405.700317,377.300485 397.048797,385.570009 386.400633,385.570009 L77.6002714,385.570009 C66.9512032,385.570009 58.300588,377.300485 58.300588,367.141746 L58.300588,302.641531 C58.300588,298.133158 59.4884418,293.624786 61.7121619,289.629534 L123.476034,179.058229 C128.508807,170.032846 138.309279,164.426535 149.014437,164.426535 L314.986467,164.426535 C325.691626,164.426535 335.493003,170.032846 340.524871,179.058229 L402.288743,289.620896 C404.512463,293.624786 405.700317,298.133158 405.700317,302.641531 L405.700317,367.141746 Z" id="Shape"></path>
                <ellipse id="Oval" cx="174" cy="220.5" rx="19" ry="18.5"></ellipse>
                <ellipse id="Oval" cx="174" cy="275.5" rx="19" ry="18.5"></ellipse>
                <ellipse id="Oval" cx="174" cy="330.5" rx="19" ry="18.5"></ellipse>
                <ellipse id="Oval" cx="232" cy="330.5" rx="19" ry="18.5"></ellipse>
                <ellipse id="Oval" cx="289" cy="330.5" rx="19" ry="18.5"></ellipse>
                <ellipse id="Oval" cx="232" cy="275.5" rx="19" ry="18.5"></ellipse>
                <ellipse id="Oval" cx="289" cy="275.5" rx="19" ry="18.5"></ellipse>
                <ellipse id="Oval" cx="232" cy="220.5" rx="19" ry="18.5"></ellipse>
                <ellipse id="Oval" cx="289" cy="220.5" rx="19" ry="18.5"></ellipse>
                <path d="M455.077863,92.374533 C395.376531,32.8110718 315.970078,0 231.486105,0 C147.011174,0 67.6047216,32.8110718 7.9124318,92.3753908 C2.65676853,97.6200155 0,104.50648 0,111.392945 C0,118.278553 2.65586425,125.163302 7.9124318,130.404495 L52.3730643,174.787367 C62.8292299,185.206277 81.3850128,185.206277 91.8411784,174.787367 C106.714742,159.945611 123.62293,147.712443 142.009613,138.473874 C151.222397,133.970394 157.175258,124.489924 157.090256,115.527569 L163.816275,67.4364028 C212.270199,52.7284646 251.183086,52.7379005 299.184871,67.4278248 L305.815941,114.321494 C305.815941,124.463332 311.486668,133.720772 320.755517,138.554508 C339.237149,147.83854 356.144433,160.070851 371.027943,174.904029 C376.255574,180.131497 383.263728,183 390.762,183 C398.250326,183 405.25848,180.131497 410.487015,174.913465 L455.079672,130.414789 C460.166235,125.339152 462.828429,118.724612 462.992103,112.061176 C463.16482,104.952539 460.503531,97.7890032 455.077863,92.374533 Z M441.099535,117.796466 L396.506878,162.30372 C393.388928,165.404687 388.104327,165.395252 385.005367,162.295141 C368.681342,146.023423 350.105665,132.593616 329.910426,122.451778 C326.905511,120.87942 325.105998,117.841072 325.0219,113.114562 L317.504637,59.3404317 C317.024466,55.9006305 314.527755,53.014114 311.0707,51.8878149 C282.934093,42.7470364 257.351166,38.1809361 231.69228,38.1809361 C206.042437,38.1809361 180.327486,42.7470364 151.946723,51.8792369 C148.470679,52.9961 145.964925,55.8911946 145.484753,59.3404317 L137.883393,114.320637 C137.883393,117.662648 135.989835,120.834814 133.078964,122.25534 C112.751701,132.468376 94.1760239,145.899041 77.8610417,162.169902 C74.7521342,165.261434 69.4584913,165.252856 66.3504881,162.17848 L21.8898556,117.795608 C18.4047685,114.328357 18.4047685,108.458392 21.8898556,104.991141 C77.9089684,49.08279 152.342797,18.2995711 231.486105,18.2995711 C310.629412,18.2995711 385.072284,49.0819322 441.099535,104.991999 C444.584622,108.458392 444.584622,114.329215 441.099535,117.796466 Z" id="Shape"></path>
            </g>
        </g>
    </g>
</svg>