<?xml version="1.0" encoding="UTF-8"?>
<svg width="496px" height="271px" viewBox="0 0 496 271" version="1.1" xmlns="http://www.w3.org/2000/svg" xmlns:xlink="http://www.w3.org/1999/xlink">
    <!-- Generator: Sketch 64 (93537) - https://sketch.com -->
    <title>mail-send</title>
    <desc>Created with Sketch.</desc>
    <g id="Page-1" stroke="none" stroke-width="1" fill="none" fill-rule="evenodd">
        <g id="Artboard" transform="translate(0.000000, -113.000000)" fill="#8588A2" fill-rule="nonzero">
            <g id="mail-send" transform="translate(0.000000, 113.000000)">
                <path d="M487.35548,270.777404 C487.54163,270.737213 487.723484,270.68311 487.90677,270.632098 C488.06285,270.588815 488.220362,270.553262 488.373577,270.50225 C488.552568,270.44351 488.727262,270.370857 488.901957,270.302841 C489.056605,270.242555 489.212684,270.188452 489.3659,270.11889 C489.530571,270.044691 489.689515,269.958126 489.84989,269.876199 C490.00597,269.795817 490.164913,269.721618 490.318129,269.631961 C490.471345,269.54385 490.615969,269.443373 490.764889,269.347533 C490.918105,269.248601 491.072752,269.155853 491.221672,269.047646 C491.380616,268.933257 491.528104,268.8065 491.68132,268.682836 C491.810193,268.579267 491.94193,268.481881 492.067939,268.370583 C492.299911,268.164991 492.520427,267.945486 492.735215,267.719798 C492.773877,267.679607 492.815403,267.6456 492.854065,267.603863 C492.894159,267.56058 492.928525,267.51266 492.967187,267.467832 C493.173384,267.239052 493.373853,267.00409 493.562867,266.756761 C493.673125,266.611455 493.769064,266.459966 493.872162,266.310023 C493.978125,266.155442 494.089815,266.005499 494.188617,265.844735 C494.29458,265.67315 494.387655,265.495383 494.485025,265.319161 C494.566645,265.170763 494.653992,265.025457 494.729884,264.872422 C494.818663,264.694655 494.893123,264.510704 494.971879,264.329844 C495.042043,264.16908 495.116503,264.009862 495.18094,263.844461 C495.249672,263.666693 495.304085,263.485834 495.364226,263.304975 C495.422935,263.128753 495.48594,262.954076 495.536057,262.774763 C495.587606,262.592358 495.624836,262.406861 495.667794,262.221364 C495.70932,262.038959 495.758005,261.859645 495.790939,261.675694 C495.831033,261.457736 495.855376,261.238231 495.884014,261.018727 C495.904061,260.864146 495.931268,260.711111 495.945587,260.554985 C495.981385,260.170079 496,259.785173 496,259.398721 L496,11.5935498 C496,5.1892729 491.193034,0 485.260576,0 L146.968733,0 C146.874226,0 146.782583,0.0123664531 146.688076,0.0154580664 C146.483311,0.021641293 146.279978,0.0309161329 146.076645,0.0494658126 C145.914838,0.0633780724 145.754462,0.0834735587 145.594087,0.106660658 C145.410801,0.131393565 145.228946,0.160763891 145.047092,0.196317444 C144.876693,0.228779383 144.707726,0.267424549 144.540191,0.309161329 C144.369792,0.352443915 144.199394,0.398818114 144.030427,0.45137554 C143.862892,0.502387159 143.698221,0.558036198 143.534981,0.616776851 C143.367446,0.678609116 143.199911,0.743532995 143.03524,0.814640101 C142.87916,0.881109786 142.725945,0.949125279 142.574161,1.023324 C142.405194,1.10525175 142.237659,1.19336273 142.071556,1.28456532 C141.929795,1.36340146 141.790899,1.4437834 141.653434,1.52880277 C141.487331,1.63082601 141.324092,1.73903247 141.162285,1.85033055 C141.029116,1.94307895 140.898811,2.03891896 140.769938,2.13630478 C140.618154,2.25224028 140.467802,2.3728132 140.320314,2.49956934 C140.185713,2.61550484 140.053976,2.73453195 139.923671,2.85665068 C139.794798,2.9787694 139.667357,3.10088813 139.54278,3.23073588 C139.401019,3.37758751 139.264986,3.53062237 139.130386,3.68520304 C139.063085,3.76249337 138.991489,3.83050886 138.927053,3.909345 C138.888391,3.9557192 138.85832,4.00673082 138.82109,4.05310502 C138.68649,4.22159794 138.56048,4.3978199 138.434471,4.57558766 C138.342828,4.70543542 138.248321,4.83528318 138.162406,4.96822255 C138.050716,5.14135289 137.947617,5.31912066 137.844519,5.49843423 C137.760035,5.64528586 137.672688,5.79059168 137.595364,5.94053493 C137.505153,6.11366527 137.426397,6.29143304 137.344778,6.4692008 C137.270318,6.6315105 137.192994,6.7938202 137.125693,6.95922151 C137.055529,7.13389766 136.993956,7.31475703 136.932384,7.4925248 C136.870811,7.66720095 136.807806,7.84033129 136.754825,8.01655325 C136.701844,8.19432101 136.658886,8.37518039 136.613065,8.55603977 C136.567243,8.74153657 136.518558,8.92548756 136.479896,9.11253016 C136.444098,9.28720631 136.419755,9.46497407 136.391117,9.64119603 C136.359614,9.8421509 136.328112,10.0431058 136.305201,10.2440606 C136.286586,10.4110077 136.277995,10.5810465 136.266539,10.7510852 C136.25222,10.9674981 136.239333,11.1839111 136.236469,11.4018698 C136.235037,11.4652479 136.227877,11.5270801 136.227877,11.5904582 L136.227877,83.0871071 C136.227877,89.491384 141.034843,94.6806569 146.967301,94.6806569 C152.899759,94.6806569 157.706725,89.491384 157.706725,83.0871071 L157.706725,37.3389595 L253.188792,128.598746 C252.690483,128.977469 252.210788,129.396382 251.764028,129.877128 L157.705293,231.416529 L157.705293,155.226811 C157.705293,148.822535 152.898327,143.633262 146.965869,143.633262 C141.033412,143.633262 136.226446,148.822535 136.226446,155.226811 L136.226446,169.392584 L80.7394236,169.392584 C74.806966,169.392584 70,174.581856 70,180.986133 C70,187.39041 74.806966,192.579683 80.7394236,192.579683 L136.226446,192.579683 L136.226446,259.40645 C136.226446,265.810727 141.033412,271 146.965869,271 L485.257713,271 C485.611398,271 485.965083,270.979905 486.317336,270.942805 C486.482007,270.925801 486.64095,270.891794 486.802758,270.867061 C486.988908,270.839236 487.172194,270.816049 487.35548,270.777404 Z M474.519721,231.418075 L380.459553,129.878674 C380.399412,129.81375 380.334976,129.759647 380.273403,129.697815 L450.986064,64.9331538 C455.508077,60.790392 456.063663,53.475635 452.226109,48.5924318 C448.391419,43.7123203 441.615559,43.1094557 437.08925,47.2537633 L316.262143,157.918061 L175.297901,23.1886455 L474.519721,23.1886455 L474.519721,231.418075 L474.519721,231.418075 Z M266.953869,146.276591 C267.719948,145.449584 268.341403,144.528284 268.826825,143.548242 L308.993701,181.93835 C311.024168,183.878338 313.567263,184.852196 316.113223,184.852196 C318.584722,184.852196 321.05479,183.935532 323.062346,182.099114 L363.996733,144.60712 C364.369033,145.194526 364.788586,145.755654 365.271144,146.276591 L459.32988,247.815992 L172.895133,247.815992 L266.953869,146.276591 Z" id="Shape"></path>
                <path d="M10.6940925,133 L191.305908,133 C197.213324,133 202,127.6288 202,121 C202,114.3712 197.213324,109 191.305908,109 L10.6940925,109 C4.7866758,109 0,114.3712 0,121 C0,127.6288 4.7866758,133 10.6940925,133 Z" id="Path"></path>
                <path d="M29.7478261,69 L111.252174,69 C117.189273,69 122,63.6288 122,57 C122,50.3712 117.189273,45 111.252174,45 L29.7478261,45 C23.810727,45 19,50.3712 19,57 C19,63.6288 23.810727,69 29.7478261,69 Z" id="Path"></path>
                <path d="M90.1785714,219 L10.8214286,219 C4.84367143,219 0,224.3712 0,231 C0,237.6288 4.84367143,243 10.8214286,243 L90.1785714,243 C96.1563286,243 101,237.6288 101,231 C101,224.3712 96.1563286,219 90.1785714,219 Z" id="Path"></path>
            </g>
        </g>
    </g>
</svg>