<?xml version="1.0" encoding="UTF-8"?>
<svg width="496px" height="464px" viewBox="0 0 496 464" version="1.1" xmlns="http://www.w3.org/2000/svg" xmlns:xlink="http://www.w3.org/1999/xlink">
    <!-- Generator: Sketch 64 (93537) - https://sketch.com -->
    <title>Group</title>
    <desc>Created with Sketch.</desc>
    <g id="Page-1" stroke="none" stroke-width="1" fill="none" fill-rule="evenodd">
        <g id="Group" fill-rule="nonzero">
            <g id="phone" transform="translate(393.000000, 127.000000)" fill="#FFFFFF">
                <path d="M3,0 C1.355469,0 0,1.355469 0,3 L0,21 C0,22.644531 1.355469,24 3,24 L13,24 C14.644531,24 16,22.644531 16,21 L16,3 C16,1.355469 14.644531,0 13,0 L3,0 Z M3,2 L13,2 C13.554688,2 14,2.445313 14,3 L14,21 C14,21.554688 13.554688,22 13,22 L3,22 C2.445313,22 2,21.554688 2,21 L2,3 C2,2.445313 2.445313,2 3,2 Z M8,19 C7.449219,19 7,19.449219 7,20 C7,20.550781 7.449219,21 8,21 C8.550781,21 9,20.550781 9,20 C9,19.449219 8.550781,19 8,19 Z" id="Shape"></path>
            </g>
            <g id="location" transform="translate(416.000000, 127.000000)" fill="#FFFFFF">
                <path d="M8,0 C3.59375022,0 0,3.62733667 0,8.07476636 C0,9.3364486 0.506944889,10.7838783 1.19444444,12.364486 C1.88194489,13.9450937 2.76736089,15.6238322 3.66666667,17.1869159 C5.46527822,20.3165886 7.27777778,22.9345794 7.27777778,22.9345794 L8,24 L8.72222222,22.9345794 C8.72222222,22.9345794 10.5347227,20.3165886 12.3333333,17.1869159 C13.2326391,15.6238322 14.118056,13.9450937 14.8055556,12.364486 C15.493056,10.7838783 16,9.3364486 16,8.07476636 C16,3.62733667 12.4062498,0 8,0 Z M8,1.79439252 C11.4479164,1.79439252 14.2222222,4.59462639 14.2222222,8.07476636 C14.2222222,8.79322407 13.8402782,10.1530372 13.1944444,11.635514 C12.5486116,13.1179909 11.6562498,14.7616822 10.7777778,16.2897196 C9.38194489,18.7219631 8.51388889,20.0081773 8,20.7757009 C7.48611111,20.0081773 6.618056,18.7219631 5.22222222,16.2897196 C4.34375022,14.7616822 3.45138933,13.1179909 2.80555556,11.635514 C2.15972267,10.1530372 1.77777778,8.79322407 1.77777778,8.07476636 C1.77777778,4.59462639 4.55208356,1.79439252 8,1.79439252 Z M8,6.28037383 C7.01736089,6.28037383 6.22222222,7.0829437 6.22222222,8.07476636 C6.22222222,9.06658901 7.01736089,9.86915888 8,9.86915888 C8.98263911,9.86915888 9.77777778,9.06658901 9.77777778,8.07476636 C9.77777778,7.0829437 8.98263911,6.28037383 8,6.28037383 Z" id="Shape"></path>
            </g>
            <g id="email" transform="translate(439.000000, 127.000000)" fill="#FFFFFF">
                <path d="M5.96037229,0 C3.02957242,0 0.642857143,2.40144185 0.642857143,5.32932738 L0.642857143,20.3076923 L13.6428407,20.3076923 L13.6428407,24 L15.4999813,24 L15.4999813,20.3076923 L26.6428408,20.3076923 L26.6428408,5.32932738 C26.6500783,2.40144185 24.2561091,0 21.3253092,0 L5.96037229,0 Z M5.96037229,1.84615385 L6.46818508,1.84615385 C8.39061522,1.84615385 9.92855971,3.389424 9.92855971,5.32932738 L9.92855971,18.4615385 L2.49999766,18.4615385 L2.49999766,5.32211631 C2.50725165,3.389424 4.04519614,1.84615385 5.96037229,1.84615385 Z M10.4508805,1.84615385 L21.3253092,1.84615385 C23.2404853,1.84615385 24.7856838,3.389424 24.7856838,5.32932738 L24.7856838,18.4615385 L11.7857002,18.4615385 L11.7857002,5.32932738 C11.7857002,3.99519323 11.2706334,2.78365477 10.4508805,1.84615385 Z M13.6428407,5.53846154 L13.6428407,7.38461538 L21.0714028,7.38461538 L21.0714028,9.23076923 L22.9285433,9.23076923 L22.9285433,5.53846154 L13.6428407,5.53846154 Z M4.35713817,7.38461538 L4.35713817,9.23076923 L8.0714192,9.23076923 L8.0714192,7.38461538 L4.35713817,7.38461538 Z" id="Shape"></path>
            </g>
            <g id="5" fill="#8588A2">
                <path d="M492.68,65.51 C490.591601,64.0096214 487.910789,63.6006211 485.47,64.41 L461.47,72.41 C458.203147,73.4990361 455.999745,76.5564075 456,79.9999996 L408,79.9999996 L408,55.9999996 L440,55.9999996 C442.809309,56.0008703 445.413206,54.5281123 446.86,52.12 L470.86,12.12 C472.344983,9.6483256 472.384955,6.56876326 470.964627,4.05937803 C469.544298,1.5499928 466.883461,-3.85818225e-07 464,-3.85818225e-07 L80,-3.85818225e-07 C75.581722,-3.85818225e-07 72,3.581722 72,7.99999961 L72,71.9999996 C72,76.418278 75.581722,79.9999996 80,79.9999996 L80,160 C80.0220492,182.08225 97.9177495,199.977951 120,200 L232,200 L232,216 C232,220.418278 235.581722,224 240,224 L256,224 L256,318.46 C248.663111,322.714825 242.575751,328.826328 238.35,336.18 C238.093334,336.229166 237.839607,336.292598 237.59,336.37 L96,381.08 L96,376 C95.9823719,362.752475 85.2475253,352.017628 72,352 L64,352 L64,344 C64,339.581722 60.418278,336 56,336 L8,336 C3.581722,336 0,339.581722 0,344 L0,456 C0,460.418278 3.581722,464 8,464 L56,464 C60.418278,464 64,460.418278 64,456 L64,448 L72,448 C82.8974155,447.987081 92.4228641,440.644975 95.21,430.11 L238.88,384.74 C249.218796,401.945116 269.173509,410.897733 288.898906,407.18082 C308.624302,403.463907 323.952299,387.862869 327.320388,368.074925 C330.688477,348.286982 321.384962,328.493435 304,318.46 L304,224 L320,224 C324.418278,224 328,220.418278 328,216 L328,200 L400,200 C404.418278,200 408,196.418278 408,192 L408,176 L456,176 C455.999745,179.443592 458.203147,182.500964 461.47,183.59 L485.47,191.59 C486.285325,191.863749 487.139949,192.002245 488,192 C492.418278,192 496,188.418278 496,184 L496,71.9999996 C496,69.4293236 494.763751,67.0154434 492.68,65.51 Z M48,448 L16,448 L16,352 L48,352 L48,448 Z M80,424 C79.9939408,428.415766 76.4157658,431.993941 72,432 L64,432 L64,368 L72,368 C76.4157658,368.006059 79.9939408,371.584234 80,376 L80,424 Z M232,370.14 L96,413.08 L96,397.86 L232,354.92 L232,370.14 Z M136,184 L120,184 C106.752475,183.982372 96.0176281,173.247525 96,160 L96,80 L136,80 L136,184 Z M312,360 C312,377.673112 297.673112,392 280,392 C262.326888,392 248,377.673112 248,360 C248,342.326888 262.326888,328 280,328 C297.663519,328.023138 311.976862,342.336481 312,360 Z M272,312 L272,224 L288,224 L288,312 L272,312 Z M312,208 L248,208 L248,200 L312,200 L312,208 Z M392,184 L152,184 L152,80 L248,80 C251.443592,80.0002552 254.500964,77.7968532 255.59,74.53 L261.77,56 L392,56 L392,184 Z M256,40 C252.556408,39.9997448 249.499036,42.2031468 248.41,45.47 L242.23,64 L88,64 L88,16 L449.87,16 L435.47,40 L256,40 Z M456,160 L408,160 L408,96 L456,96 L456,160 Z M480,172.9 L472,170.23 L472,85.77 L480,83.1 L480,172.9 Z" id="Shape"></path>
                <path d="M376,88 L280,88 C275.581722,88 272,91.581722 272,96 L272,152 C272,156.418278 275.581722,160 280,160 L376,160 C380.418278,160 384,156.418278 384,152 L384,96 C384,91.581722 380.418278,88 376,88 Z M368,144 L288,144 L288,104 L368,104 L368,144 Z" id="Shape"></path>
                <path d="M280,336 C266.745166,336 256,346.745166 256,360 C256,373.254834 266.745166,384 280,384 C293.254834,384 304,373.254834 304,360 C303.98457,346.751562 293.248438,336.01543 280,336 L280,336 Z M280,368 C275.581722,368 272,364.418278 272,360 C272,355.581722 275.581722,352 280,352 C284.418278,352 288,355.581722 288,360 C287.99504,364.416222 284.416222,367.99504 280,368 L280,368 Z" id="Shape"></path>
            </g>
        </g>
    </g>
</svg>