<?xml version="1.0" encoding="UTF-8"?>
<svg width="498px" height="498px" viewBox="0 0 498 498" version="1.1" xmlns="http://www.w3.org/2000/svg" xmlns:xlink="http://www.w3.org/1999/xlink">
    <!-- Generator: Sketch 64 (93537) - https://sketch.com -->
    <title>wifi</title>
    <desc>Created with Sketch.</desc>
    <g id="Page-1" stroke="none" stroke-width="1" fill="none" fill-rule="evenodd">
        <g id="wifi" fill="#8588A2" fill-rule="nonzero">
            <path d="M414.87,184.621 C369.357454,143.619538 310.257729,120.951282 249,120.999922 C187.742482,120.952424 128.643153,143.620528 83.13,184.621 C74.9039948,191.998696 74.2163042,204.647995 81.594,212.874 C88.9716958,221.100005 101.620995,221.787696 109.847,214.41 C188.949081,143.196772 309.050919,143.196772 388.153,214.41 C396.054816,221.517675 408.139061,221.191537 415.646,213.668 L415.655,213.659 C419.536526,209.772605 421.650683,204.462063 421.502249,198.971317 C421.353815,193.480572 418.95583,188.292009 414.87,184.621 L414.87,184.621 Z M404.341,202.345 L404.333,202.354 C402.844851,203.857852 400.439102,203.931286 398.862,202.521 C357.751892,165.455361 304.352515,144.959267 249,145 C193.647918,144.959991 140.249105,165.456005 99.139,202.521 C97.9462739,203.574694 96.2423664,203.82107 94.8000168,203.148393 C93.3576671,202.475716 92.4513149,201.011978 92.490685,199.421 C92.5197736,198.310513 93.0054761,197.260933 93.834,196.521 C182.060279,117.169078 315.939721,117.169078 404.166,196.521 C404.994524,197.260933 405.480226,198.310513 405.50965,199.421 C405.539564,200.515017 405.117169,201.573358 404.341,202.345 L404.341,202.345 Z" id="Shape"></path>
            <path d="M375,224.117 C302.74995,161.29418 195.26005,161.29418 123.01,224.117 C114.670501,231.361319 113.782681,243.9945 121.027,252.334 C128.271319,260.673499 140.9045,261.561319 149.244,254.317 C206.447478,204.567654 291.561522,204.567654 348.765,254.317 C357.1045,261.561595 369.737905,260.673999 376.9825,252.3345 C384.227095,243.995 383.339499,231.361595 375,224.117 L375,224.117 Z M364.672,242.017 C363.207868,243.493058 360.85335,243.590727 359.272,242.241 C296.046176,187.250464 201.967824,187.250464 138.742,242.241 C137.531377,243.262743 135.831831,243.473761 134.408097,242.779103 C132.984363,242.084446 132.10473,240.615014 132.165,239.032 C132.19753,237.936366 132.687072,236.904338 133.515,236.186 C199.74303,178.602196 298.27097,178.602196 364.499,236.186 C365.326928,236.904338 365.81647,237.936366 365.849,239.032 C365.891038,240.149321 365.462213,241.232992 364.667,242.019 L364.672,242.017 Z" id="Shape"></path>
            <path d="M334.669,263.372 C284.73459,222.876598 213.26541,222.876598 163.331,263.372 C157.691575,267.836997 154.884195,274.986419 155.978738,282.095659 C157.073281,289.204899 161.901136,295.178796 168.622432,297.740728 C175.343728,300.302661 182.923066,299.05797 188.472,294.481 C223.742312,265.840369 274.258688,265.840369 309.529,294.481 C315.663398,299.444797 324.14395,300.335074 331.175439,296.753415 C338.206928,293.171755 342.473195,285.788577 342.065,277.908 C341.765406,272.234996 339.078368,266.953927 334.669,263.372 L334.669,263.372 Z M324.925,281.761 C323.49982,283.210604 321.207542,283.342951 319.625,282.067 C278.47436,248.643776 219.52864,248.643776 178.378,282.067 C177.14984,283.041432 175.464768,283.206097 174.071201,282.487858 C172.677633,281.76962 171.834002,280.301674 171.915,278.736 C171.969892,277.585583 172.516178,276.514134 173.415,275.794 C217.473021,240.067969 280.527979,240.067969 324.586,275.794 C325.48467,276.513823 326.030954,277.584903 326.086,278.735 C326.150342,279.863408 325.727606,280.965218 324.925,281.761 L324.925,281.761 Z" id="Shape"></path>
            <path d="M424.36,73.64 C361.822142,10.4331533 270.231962,-14.456867 184.304839,8.4039909 C98.377717,31.2648487 31.2648487,98.377717 8.4039909,184.304839 C-14.456867,270.231962 10.4331533,361.822142 73.64,424.36 C136.177858,487.566847 227.768038,512.456867 313.695161,489.596009 C399.622283,466.735151 466.735151,399.622283 489.596009,313.695161 C512.456867,227.768038 487.566847,136.177858 424.36,73.64 Z M413.05,413.05 C322.447686,503.652311 175.552315,503.65231 84.9500024,413.049998 C-5.65230981,322.447685 -5.65231091,175.552314 84.95,84.95 C175.552313,-5.65231321 322.447687,-5.65231321 413.05,84.95 C503.652313,175.552313 503.652313,322.447687 413.05,413.05 Z" id="Shape"></path>
            <path d="M401.73,96.27 C347.269609,41.1765122 267.475879,19.4664935 192.609673,39.3732211 C117.743467,59.2799486 59.2706518,117.754678 39.3663751,192.621536 C19.4620985,267.488394 41.1747293,347.281412 96.27,401.74 C150.730391,456.833488 230.524121,478.543506 305.390327,458.636779 C380.256533,438.730051 438.729348,380.255322 458.633625,305.388464 C478.537901,230.521606 456.825271,150.728588 401.73,96.27 Z M249,449 C138.72,449 49,359.28 49,249 C49,138.72 138.72,49 249,49 C359.28,49 449,138.72 449,249 C449,359.28 359.28,449 249,449 Z" id="Shape"></path>
            <path d="M249,281 C222.490332,281 201,302.490332 201,329 C201,355.509668 222.490332,377 249,377 C275.509668,377 297,355.509668 297,329 C296.971891,302.501984 275.498016,281.028109 249,281 L249,281 Z M249,361 C231.326888,361 217,346.673112 217,329 C217,311.326888 231.326888,297 249,297 C266.673112,297 281,311.326888 281,329 C280.98016,346.664888 266.664888,360.98016 249,361 Z" id="Shape"></path>
        </g>
    </g>
</svg>