<?xml version="1.0" encoding="UTF-8"?>
<svg width="496px" height="496px" viewBox="0 0 496 496" version="1.1" xmlns="http://www.w3.org/2000/svg" xmlns:xlink="http://www.w3.org/1999/xlink">
    <!-- Generator: Sketch 64 (93537) - https://sketch.com -->
    <title>route</title>
    <desc>Created with Sketch.</desc>
    <g id="Page-1" stroke="none" stroke-width="1" fill="none" fill-rule="evenodd">
        <g id="Artboard" fill="#8588A2" fill-rule="nonzero">
            <g id="route">
                <path d="M91.8945564,287.154 C83.3427293,292.224549 77.593985,301.5435 77.593985,312.182927 C77.593985,328.220598 90.6472331,341.268293 106.691729,341.268293 C119.335669,341.268293 130.117353,333.162201 134.121203,321.878049 L209.503759,321.878049 C225.548256,321.878049 238.601504,334.925744 238.601504,350.963415 C238.601504,367.001085 225.548256,380.04878 209.503759,380.04878 L93.112782,380.04878 C66.3719549,380.04878 44.6165414,401.794939 44.6165414,428.52439 C44.6165414,455.253841 66.3719549,477 93.112782,477 L190.105263,477 C195.462158,477 199.804511,472.659494 199.804511,467.304878 C199.804511,461.950262 195.462158,457.609756 190.105263,457.609756 L93.112782,457.609756 C77.0682857,457.609756 64.0150376,444.562061 64.0150376,428.52439 C64.0150376,412.48672 77.0682857,399.439024 93.112782,399.439024 L209.503759,399.439024 C236.244586,399.439024 258,377.692866 258,350.963415 C258,324.233963 236.244586,302.487805 209.503759,302.487805 L134.121203,302.487805 C131.827331,296.023098 127.309421,290.604494 121.488902,287.154 L195.56982,165.65861 C207.223466,148.14922 213.383459,127.746805 213.383459,106.646341 C213.383459,47.8415488 165.521549,0 106.691729,0 C47.8619098,0 0,47.8415488 0,106.646341 C0,127.746805 6.15999248,148.14922 17.8136391,165.65861 L91.8945564,287.154 Z M106.691729,321.878049 C101.343564,321.878049 96.9924812,317.528817 96.9924812,312.182927 C96.9924812,306.837037 101.343564,302.487805 106.691729,302.487805 C112.039895,302.487805 116.390977,306.837037 116.390977,312.182927 C116.390977,317.528817 112.039895,321.878049 106.691729,321.878049 Z M106.691729,19.3902439 C154.825218,19.3902439 193.984962,58.5333293 193.984962,106.646341 C193.984962,123.969585 188.915165,140.710152 179.324549,155.058933 C179.249865,155.170427 179.17712,155.28386 179.107286,155.399232 L106.691729,274.163506 C106.691729,274.163506 34.133594,155.170427 34.0589098,155.058933 C24.4682932,140.710152 19.3984962,123.969585 19.3984962,106.646341 C19.3984962,58.5333293 58.5582406,19.3902439 106.691729,19.3902439 Z" id="Shape"></path>
                <path d="M106.5,155 C133.2429,155 155,133.2429 155,106.5 C155,79.7571 133.2429,58 106.5,58 C79.7571,58 58,79.7571 58,106.5 C58,133.2429 79.7571,155 106.5,155 Z M106.5,77.4 C122.54574,77.4 135.6,90.45426 135.6,106.5 C135.6,122.54574 122.54574,135.6 106.5,135.6 C90.45426,135.6 77.4,122.54574 77.4,106.5 C77.4,90.45426 90.45426,77.4 106.5,77.4 Z" id="Shape"></path>
                <path d="M389.262712,161 C330.407771,161 282.525424,208.777197 282.525424,267.50289 C282.525424,288.608858 288.707453,309.014812 300.402949,326.519046 L374.238953,442.084364 C368.521716,445.536026 364.088237,450.896026 361.822496,457.271676 L276.70339,457.271676 C271.344208,457.271676 267,461.606344 267,466.953757 C267,472.301171 271.344208,476.635838 276.70339,476.635838 L361.821525,476.635838 C365.827085,487.904812 376.612403,496 389.262712,496 C405.314059,496 418.372881,482.969855 418.372881,466.953757 C418.372881,456.418685 412.722597,447.177139 404.287441,442.084364 L478.123445,326.519046 C489.81797,309.014812 496,288.608858 496,267.50289 C496,208.777197 448.117653,161 389.262712,161 Z M389.262712,476.635838 C383.912263,476.635838 379.559322,472.292457 379.559322,466.953757 C379.559322,461.615058 383.912263,457.271676 389.262712,457.271676 C394.613161,457.271676 398.966102,461.615058 398.966102,466.953757 C398.966102,472.292457 394.613161,476.635838 389.262712,476.635838 Z M461.926547,315.850361 C461.888703,315.908454 389.262712,429.57802 389.262712,429.57802 C389.262712,429.57802 316.63672,315.907486 316.598877,315.850361 C307.004165,301.520882 301.932203,284.802832 301.932203,267.50289 C301.932203,219.454595 341.108669,180.364162 389.262712,180.364162 C437.416754,180.364162 476.59322,219.454595 476.59322,267.50289 C476.59322,284.802832 471.521258,301.520882 461.926547,315.850361 Z" id="Shape"></path>
                <path d="M389.5,219 C362.7571,219 341,240.7571 341,267.5 C341,294.2429 362.7571,316 389.5,316 C416.2429,316 438,294.2429 438,267.5 C438,240.7571 416.2429,219 389.5,219 Z M389.5,296.6 C373.45426,296.6 360.4,283.54574 360.4,267.5 C360.4,251.45426 373.45426,238.4 389.5,238.4 C405.54574,238.4 418.6,251.45426 418.6,267.5 C418.6,283.54574 405.54574,296.6 389.5,296.6 Z" id="Shape"></path>
                <ellipse id="Oval" cx="234" cy="466.5" rx="10" ry="9.5"></ellipse>
            </g>
        </g>
    </g>
</svg>