<svg id="svg" version="1.1" xmlns="http://www.w3.org/2000/svg" xmlns:xlink="http://www.w3.org/1999/xlink" width="400" height="400" viewBox="0, 0, 400,400"><g id="svgg"><path id="path0" d="M76.085 174.603 C 73.547 175.705,73.600 175.051,73.600 205.200 C 73.600 235.039,73.562 234.539,75.949 235.773 C 78.062 236.866,132.098 236.703,133.910 235.598 C 136.022 234.311,136.000 234.624,136.000 205.200 C 136.000 175.776,136.022 176.089,133.910 174.802 C 132.177 173.745,78.484 173.560,76.085 174.603 M170.952 174.764 C 168.790 176.082,168.800 175.943,168.800 205.273 C 168.800 235.032,168.762 234.539,171.149 235.773 C 173.262 236.866,227.298 236.703,229.110 235.598 C 231.222 234.311,231.200 234.627,231.200 205.154 C 231.200 174.876,231.279 175.882,228.813 174.607 C 226.794 173.563,172.681 173.710,170.952 174.764 M266.305 174.626 C 263.931 175.914,264.000 174.997,264.000 205.200 C 264.000 235.529,263.921 234.518,266.387 235.793 C 268.155 236.708,322.245 236.708,324.013 235.793 C 326.479 234.518,326.400 235.529,326.400 205.200 C 326.400 174.536,326.500 175.702,323.786 174.568 C 321.711 173.701,267.910 173.755,266.305 174.626 M75.464 270.821 C 73.581 272.303,73.549 272.856,73.678 302.133 L 73.800 329.666 75.106 330.833 L 76.413 332.000 104.833 332.000 C 134.967 332.000,134.345 332.041,135.396 330.008 C 136.277 328.304,136.309 273.758,135.430 272.058 C 134.350 269.969,134.809 270.000,104.635 270.000 C 76.869 270.000,76.494 270.011,75.464 270.821 M172.914 271.018 C 171.297 271.824,170.676 272.429,169.936 273.918 L 169.000 275.800 169.000 332.800 L 169.000 389.800 200.000 389.800 L 231.000 389.800 231.000 332.600 L 231.000 275.400 229.916 273.556 C 227.760 269.889,228.698 270.000,199.904 270.000 L 174.957 270.000 172.914 271.018 M265.506 271.167 L 264.200 272.334 264.083 299.867 C 263.957 329.637,263.956 329.627,265.485 331.043 L 266.517 332.000 294.878 332.000 C 326.552 332.000,325.184 332.119,326.005 329.298 C 326.306 328.263,326.403 319.221,326.320 300.067 L 326.200 272.334 324.894 271.167 L 323.587 270.000 295.200 270.000 L 266.813 270.000 265.506 271.167 " stroke="none" fill="#fcfafa" fill-rule="evenodd"></path><path id="path1" d="M54.402 0.295 C 53.632 0.389,52.822 0.606,52.602 0.778 C 52.381 0.949,51.705 1.208,51.100 1.352 C 50.495 1.497,50.000 1.792,50.000 2.008 C 50.000 2.223,49.629 2.400,49.176 2.400 C 48.723 2.400,48.464 2.580,48.600 2.800 C 48.736 3.020,48.522 3.204,48.124 3.209 C 47.726 3.213,46.860 3.867,46.200 4.661 C 45.540 5.455,44.540 6.576,43.978 7.152 C 42.649 8.514,41.200 11.042,41.200 11.999 C 41.200 12.414,41.020 12.864,40.800 13.000 C 39.918 13.545,40.288 95.912,41.174 96.386 C 42.218 96.945,357.108 96.967,358.578 96.408 L 359.607 96.017 359.467 54.708 C 359.336 16.460,359.194 10.400,358.431 10.400 C 358.276 10.400,357.902 9.770,357.600 9.000 C 357.298 8.230,356.857 7.600,356.620 7.600 C 356.384 7.600,355.832 7.122,355.395 6.538 C 353.872 4.503,352.475 3.200,351.816 3.200 C 351.451 3.200,351.264 3.020,351.400 2.800 C 351.536 2.580,351.277 2.400,350.824 2.400 C 350.371 2.400,350.000 2.223,350.000 2.008 C 350.000 1.792,349.505 1.497,348.900 1.352 C 348.295 1.208,347.547 0.890,347.239 0.645 C 346.695 0.214,57.896 -0.131,54.402 0.295 M87.357 19.406 C 90.036 20.678,90.186 21.378,90.324 33.300 L 90.448 44.000 99.010 44.000 C 109.485 44.000,108.400 45.326,108.400 32.519 L 108.400 22.586 109.404 21.108 C 111.462 18.080,115.672 18.342,117.299 21.600 C 118.374 23.751,118.374 73.849,117.299 76.000 C 115.674 79.253,111.362 79.491,109.313 76.441 C 108.422 75.115,108.400 74.835,108.400 64.974 C 108.400 59.414,108.291 54.581,108.157 54.233 C 107.946 53.682,106.776 53.600,99.181 53.600 L 90.448 53.600 90.324 64.300 C 90.204 74.650,90.170 75.048,89.283 76.475 C 87.571 79.228,84.206 79.452,82.017 76.958 L 80.800 75.572 80.800 48.948 C 80.800 19.464,80.688 20.749,83.379 19.421 C 84.932 18.654,85.766 18.651,87.357 19.406 M155.280 19.250 C 161.800 20.635,167.153 25.756,168.564 31.961 C 169.460 35.903,169.486 61.737,168.597 65.508 C 165.545 78.450,148.305 83.363,137.546 74.355 C 132.529 70.155,131.899 67.648,131.694 51.079 C 131.464 32.452,131.964 29.538,136.245 24.527 C 138.144 22.304,143.150 19.454,145.800 19.086 C 148.338 18.734,153.252 18.819,155.280 19.250 M213.431 20.494 C 215.561 22.819,215.232 26.061,212.710 27.598 C 211.583 28.286,210.692 28.397,206.315 28.399 L 201.230 28.400 201.115 51.730 L 201.000 75.059 200.000 76.528 C 197.812 79.742,193.916 79.349,192.050 75.726 C 191.732 75.110,191.600 68.247,191.600 52.400 C 191.600 37.688,191.457 29.681,191.186 29.174 C 190.811 28.473,190.306 28.400,185.814 28.400 L 180.857 28.400 179.456 27.079 C 177.196 24.947,177.052 22.788,179.014 20.457 C 180.375 18.838,179.781 18.888,196.931 18.948 L 212.062 19.000 213.431 20.494 M261.313 19.345 C 264.924 20.873,265.479 25.490,262.283 27.424 C 261.111 28.133,259.963 28.217,249.000 28.400 L 237.000 28.600 237.000 36.200 L 237.000 43.800 249.293 44.000 L 261.586 44.200 262.823 45.437 C 265.015 47.631,264.777 50.699,262.272 52.561 C 261.200 53.358,260.536 53.410,249.072 53.600 L 237.000 53.800 237.000 61.400 L 237.000 69.000 249.000 69.200 C 261.976 69.416,262.733 69.537,263.781 71.563 C 265.010 73.941,264.352 76.327,262.035 77.888 C 260.295 79.061,232.207 79.341,230.015 78.208 C 227.008 76.653,227.200 78.660,227.200 48.777 L 227.200 22.061 228.267 20.793 C 228.854 20.095,229.709 19.373,230.167 19.188 C 231.672 18.579,259.840 18.721,261.313 19.345 M288.552 19.354 C 289.298 19.666,290.299 20.585,290.839 21.454 L 291.800 23.000 292.000 46.000 L 292.200 69.000 304.272 69.200 C 315.730 69.390,316.401 69.443,317.472 70.237 C 320.382 72.398,319.691 77.073,316.268 78.374 C 314.435 79.071,286.725 78.947,285.018 78.233 C 282.049 76.993,282.200 78.568,282.200 48.818 C 282.200 23.077,282.226 22.162,282.981 21.047 C 284.315 19.076,286.383 18.448,288.552 19.354 M147.400 28.800 C 141.745 30.604,141.205 32.348,141.205 48.800 C 141.205 60.839,141.478 63.613,142.873 65.746 C 145.918 70.400,155.012 70.271,158.228 65.529 L 159.400 63.800 159.400 48.771 L 159.400 33.742 158.300 32.079 C 156.418 29.236,151.075 27.629,147.400 28.800 M40.446 137.357 C 39.830 137.699,39.653 137.985,39.946 138.167 C 40.283 138.375,40.400 172.094,40.400 269.224 L 40.400 400.000 199.999 400.000 L 359.598 400.000 359.699 268.900 C 359.787 155.157,359.724 137.734,359.224 137.300 C 358.347 136.539,41.819 136.596,40.446 137.357 M133.804 173.776 C 136.948 175.090,136.797 173.507,136.799 205.120 C 136.800 236.154,136.908 234.814,134.281 236.416 C 133.043 237.171,132.064 237.197,104.825 237.199 L 76.650 237.200 75.340 236.303 C 72.896 234.628,73.000 236.013,73.000 205.200 C 73.000 173.928,72.877 175.416,75.586 173.983 C 77.508 172.967,131.409 172.775,133.804 173.776 M229.481 173.984 C 232.107 175.585,232.000 174.255,232.000 205.200 C 232.000 236.145,232.107 234.815,229.481 236.416 C 227.504 237.622,172.521 237.637,170.546 236.433 C 167.903 234.821,168.000 236.000,168.000 205.387 C 168.000 174.855,167.934 175.689,170.485 174.056 C 172.475 172.781,227.398 172.714,229.481 173.984 M324.600 174.118 C 327.303 175.648,327.234 174.778,327.110 205.963 C 327.005 232.543,326.966 233.851,326.241 234.920 C 324.639 237.283,325.772 237.200,295.120 237.199 C 263.592 237.197,265.326 237.358,263.868 234.287 C 262.821 232.081,262.852 178.100,263.901 176.000 C 265.354 173.090,264.113 173.201,295.200 173.207 L 323.000 173.213 324.600 174.118 M132.565 269.182 C 133.425 269.382,134.685 270.101,135.365 270.780 L 136.600 272.015 136.708 300.431 C 136.806 326.180,136.754 328.977,136.154 330.241 C 134.783 333.130,136.260 333.000,104.769 333.000 L 76.538 333.000 75.081 331.889 C 72.752 330.112,72.768 330.344,72.889 300.118 L 73.000 272.600 73.890 271.353 C 74.724 270.183,75.926 269.481,77.800 269.069 C 79.383 268.721,131.036 268.827,132.565 269.182 M226.800 269.882 C 229.273 271.093,229.784 271.563,230.863 273.617 L 231.800 275.400 231.904 332.554 C 231.981 374.665,231.889 389.852,231.555 390.254 C 230.929 391.009,169.233 391.073,168.480 390.320 C 168.111 389.951,168.000 376.705,168.000 333.131 L 168.000 276.423 168.953 274.267 C 171.341 268.868,171.650 268.816,201.000 268.917 C 224.849 268.999,225.011 269.006,226.800 269.882 M324.296 269.708 C 327.167 271.277,327.000 269.322,327.000 301.313 L 327.000 330.062 325.543 331.397 C 323.505 333.265,323.507 333.265,293.400 333.124 C 263.976 332.986,265.206 333.106,263.844 330.235 C 263.241 328.965,263.189 326.217,263.290 300.444 L 263.400 272.052 264.548 270.855 C 266.428 268.892,266.823 268.868,295.800 268.936 C 321.000 268.995,323.095 269.052,324.296 269.708 " stroke="none" fill="#f35b5b" fill-rule="evenodd"></path><path id="path2" d="M83.731 20.183 C 81.316 21.234,81.400 20.201,81.400 48.818 C 81.400 72.651,81.461 75.128,82.069 76.056 C 83.585 78.370,86.908 78.478,88.559 76.268 C 89.354 75.206,89.411 74.531,89.600 64.072 L 89.800 53.000 99.000 52.892 C 110.427 52.758,109.200 51.368,109.200 64.458 C 109.200 76.364,109.659 78.000,113.001 78.000 C 117.249 78.000,117.242 78.051,117.111 47.824 L 117.000 22.018 115.900 20.918 C 114.365 19.384,112.035 19.383,110.500 20.917 L 109.400 22.016 109.200 33.023 C 109.033 42.221,108.901 44.093,108.400 44.409 C 107.434 45.019,90.588 44.909,90.074 44.289 C 89.806 43.966,89.604 39.878,89.525 33.189 C 89.389 21.651,89.285 21.114,86.976 20.062 C 85.705 19.483,85.307 19.498,83.731 20.183 M145.800 19.972 C 139.871 20.981,134.898 25.637,133.163 31.800 C 132.347 34.698,132.348 62.904,133.163 65.800 C 138.056 83.169,165.297 81.932,168.055 64.215 C 168.864 59.020,168.312 32.531,167.345 30.147 C 164.109 22.166,155.845 18.263,145.800 19.972 M180.955 19.992 C 178.746 20.885,177.875 23.424,179.019 25.637 C 179.884 27.310,180.975 27.600,186.397 27.600 C 193.115 27.600,192.400 24.710,192.400 51.855 C 192.400 68.513,192.528 75.091,192.863 75.718 C 194.740 79.225,199.355 78.323,200.162 74.291 C 200.293 73.636,200.400 63.065,200.400 50.799 C 200.400 33.439,200.511 28.406,200.900 28.083 C 201.175 27.854,203.801 27.607,206.736 27.534 C 212.015 27.401,212.081 27.388,213.036 26.278 C 214.749 24.284,214.115 21.268,211.726 20.047 C 210.677 19.510,182.274 19.459,180.955 19.992 M230.168 20.058 C 227.952 21.133,228.000 20.504,228.005 48.662 C 228.011 77.116,227.945 76.053,229.793 77.195 C 231.630 78.331,259.710 78.453,261.604 77.334 C 263.413 76.265,264.150 73.774,263.188 71.978 C 262.208 70.146,261.152 70.000,248.896 70.000 C 234.441 70.000,235.954 71.064,236.091 60.999 L 236.200 53.000 248.600 52.798 C 262.828 52.567,263.600 52.361,263.600 48.800 C 263.600 45.131,262.377 44.800,248.814 44.800 C 242.462 44.800,236.981 44.691,236.633 44.557 C 235.562 44.146,235.695 28.592,236.774 28.014 C 237.255 27.756,241.870 27.600,249.000 27.600 C 260.894 27.600,261.542 27.518,262.891 25.853 C 264.336 24.069,263.362 20.814,261.152 20.043 C 259.495 19.465,231.362 19.479,230.168 20.058 M285.400 19.963 C 282.856 21.052,283.000 19.322,283.000 48.833 L 283.000 75.582 284.109 76.691 L 285.218 77.800 300.777 77.800 L 316.336 77.800 317.368 76.830 C 318.951 75.343,318.852 72.451,317.169 71.036 L 315.939 70.000 304.049 70.000 C 295.335 70.000,292.032 69.872,291.680 69.520 C 291.318 69.158,291.199 63.566,291.198 46.820 C 291.196 33.347,291.039 24.037,290.798 23.170 C 290.096 20.643,287.464 19.079,285.400 19.963 M153.324 28.053 C 155.824 28.555,158.321 30.366,159.510 32.540 C 160.362 34.096,160.787 60.039,160.012 63.120 C 157.657 72.472,142.594 72.176,140.771 62.742 C 140.297 60.285,140.318 37.344,140.797 34.816 C 141.815 29.450,146.821 26.747,153.324 28.053 " stroke="none" fill="#fcd954" fill-rule="evenodd"></path><path id="path3" d="M83.379 19.421 C 80.688 20.749,80.800 19.464,80.800 48.948 L 80.800 75.572 82.017 76.958 C 84.206 79.452,87.571 79.228,89.283 76.475 C 90.170 75.048,90.204 74.650,90.324 64.300 L 90.448 53.600 99.181 53.600 C 106.776 53.600,107.946 53.682,108.157 54.233 C 108.291 54.581,108.400 59.414,108.400 64.974 C 108.400 74.835,108.422 75.115,109.313 76.441 C 111.362 79.491,115.674 79.253,117.299 76.000 C 118.374 73.849,118.374 23.751,117.299 21.600 C 115.672 18.342,111.462 18.080,109.404 21.108 L 108.400 22.586 108.400 32.519 C 108.400 45.326,109.485 44.000,99.010 44.000 L 90.448 44.000 90.324 33.300 C 90.186 21.378,90.036 20.678,87.357 19.406 C 85.766 18.651,84.932 18.654,83.379 19.421 M145.800 19.086 C 138.994 20.030,132.998 26.629,131.964 34.314 C 131.178 40.153,131.689 64.113,132.657 66.839 C 137.791 81.293,160.189 83.292,167.037 69.908 C 169.294 65.498,170.331 39.729,168.564 31.961 C 166.450 22.669,157.298 17.492,145.800 19.086 M180.914 19.074 C 177.583 19.744,176.718 24.496,179.456 27.079 L 180.857 28.400 185.814 28.400 C 190.306 28.400,190.811 28.473,191.186 29.174 C 191.457 29.681,191.600 37.688,191.600 52.400 C 191.600 68.247,191.732 75.110,192.050 75.726 C 193.916 79.349,197.812 79.742,200.000 76.528 L 201.000 75.059 201.115 51.730 L 201.230 28.400 206.315 28.399 C 210.692 28.397,211.583 28.286,212.710 27.598 C 215.232 26.061,215.561 22.819,213.431 20.494 L 212.062 19.000 196.931 18.948 C 188.609 18.919,181.401 18.976,180.914 19.074 M230.167 19.188 C 229.709 19.373,228.854 20.095,228.267 20.793 L 227.200 22.061 227.200 48.777 C 227.200 78.660,227.008 76.653,230.015 78.208 C 232.207 79.341,260.295 79.061,262.035 77.888 C 264.352 76.327,265.010 73.941,263.781 71.563 C 262.733 69.537,261.976 69.416,249.000 69.200 L 237.000 69.000 237.000 61.400 L 237.000 53.800 249.072 53.600 C 260.536 53.410,261.200 53.358,262.272 52.561 C 264.777 50.699,265.015 47.631,262.823 45.437 L 261.586 44.200 249.293 44.000 L 237.000 43.800 237.000 36.200 L 237.000 28.600 249.000 28.400 C 259.963 28.217,261.111 28.133,262.283 27.424 C 265.479 25.490,264.924 20.873,261.313 19.345 C 259.840 18.721,231.672 18.579,230.167 19.188 M284.981 19.362 C 282.055 20.637,282.200 19.102,282.200 48.818 C 282.200 78.568,282.049 76.993,285.018 78.233 C 286.725 78.947,314.435 79.071,316.268 78.374 C 319.691 77.073,320.382 72.398,317.472 70.237 C 316.401 69.443,315.730 69.390,304.272 69.200 L 292.200 69.000 292.000 46.000 L 291.800 23.000 290.839 21.454 C 289.400 19.140,287.253 18.373,284.981 19.362 M86.976 20.062 C 89.285 21.114,89.389 21.651,89.525 33.189 C 89.604 39.878,89.806 43.966,90.074 44.289 C 90.588 44.909,107.434 45.019,108.400 44.409 C 108.901 44.093,109.033 42.221,109.200 33.023 L 109.400 22.016 110.500 20.917 C 112.035 19.383,114.365 19.384,115.900 20.918 L 117.000 22.018 117.111 47.824 C 117.242 78.051,117.249 78.000,113.001 78.000 C 109.659 78.000,109.200 76.364,109.200 64.458 C 109.200 51.368,110.427 52.758,99.000 52.892 L 89.800 53.000 89.600 64.072 C 89.411 74.531,89.354 75.206,88.559 76.268 C 86.908 78.478,83.585 78.370,82.069 76.056 C 81.162 74.672,81.032 23.246,81.931 21.667 C 82.859 20.039,85.254 19.277,86.976 20.062 M155.280 20.049 C 160.749 21.208,165.247 24.973,167.345 30.147 C 168.312 32.531,168.864 59.020,168.055 64.215 C 165.297 81.932,138.056 83.169,133.163 65.800 C 132.348 62.904,132.347 34.698,133.163 31.800 C 135.738 22.648,144.808 17.830,155.280 20.049 M211.726 20.047 C 214.115 21.268,214.749 24.284,213.036 26.278 C 212.081 27.388,212.015 27.401,206.736 27.534 C 203.801 27.607,201.175 27.854,200.900 28.083 C 200.511 28.406,200.400 33.439,200.400 50.799 C 200.400 63.065,200.293 73.636,200.162 74.291 C 199.355 78.323,194.740 79.225,192.863 75.718 C 192.528 75.091,192.400 68.513,192.400 51.855 C 192.400 24.710,193.115 27.600,186.397 27.600 C 180.975 27.600,179.884 27.310,179.019 25.637 C 177.875 23.424,178.746 20.885,180.955 19.992 C 182.274 19.459,210.677 19.510,211.726 20.047 M261.152 20.043 C 263.362 20.814,264.336 24.069,262.891 25.853 C 261.542 27.518,260.894 27.600,249.000 27.600 C 241.870 27.600,237.255 27.756,236.774 28.014 C 235.695 28.592,235.562 44.146,236.633 44.557 C 236.981 44.691,242.462 44.800,248.814 44.800 C 262.377 44.800,263.600 45.131,263.600 48.800 C 263.600 52.361,262.828 52.567,248.600 52.798 L 236.200 53.000 236.091 60.999 C 235.954 71.064,234.441 70.000,248.896 70.000 C 261.152 70.000,262.208 70.146,263.188 71.978 C 264.150 73.774,263.413 76.265,261.604 77.334 C 259.710 78.453,231.630 78.331,229.793 77.195 C 227.945 76.053,228.011 77.116,228.005 48.662 C 228.000 20.504,227.952 21.133,230.168 20.058 C 231.362 19.479,259.495 19.465,261.152 20.043 M289.481 20.876 C 291.108 22.405,291.195 23.722,291.198 46.820 C 291.199 63.566,291.318 69.158,291.680 69.520 C 292.032 69.872,295.335 70.000,304.049 70.000 L 315.939 70.000 317.169 71.036 C 318.852 72.451,318.951 75.343,317.368 76.830 L 316.336 77.800 300.777 77.800 L 285.218 77.800 284.109 76.691 L 283.000 75.582 283.000 48.833 C 283.000 22.647,283.017 22.065,283.800 21.195 C 285.420 19.395,287.764 19.263,289.481 20.876 M147.487 28.037 C 143.863 28.890,141.459 31.326,140.797 34.816 C 140.318 37.344,140.297 60.285,140.771 62.742 C 142.594 72.176,157.657 72.472,160.012 63.120 C 160.787 60.039,160.362 34.096,159.510 32.540 C 157.431 28.740,152.440 26.870,147.487 28.037 M155.564 29.582 C 156.478 30.048,157.685 31.150,158.300 32.079 L 159.400 33.742 159.400 48.771 L 159.400 63.800 158.228 65.529 C 155.012 70.271,145.918 70.400,142.873 65.746 C 140.424 62.002,140.414 35.365,142.861 31.794 C 145.077 28.560,151.402 27.458,155.564 29.582 M75.586 173.983 C 72.877 175.416,73.000 173.928,73.000 205.200 C 73.000 236.013,72.896 234.628,75.340 236.303 L 76.650 237.200 104.825 237.199 C 132.064 237.197,133.043 237.171,134.281 236.416 C 136.908 234.814,136.800 236.154,136.799 205.120 C 136.797 173.507,136.948 175.090,133.804 173.776 C 131.409 172.775,77.508 172.967,75.586 173.983 M170.485 174.056 C 167.934 175.689,168.000 174.855,168.000 205.387 C 168.000 236.000,167.903 234.821,170.546 236.433 C 172.521 237.637,227.504 237.622,229.481 236.416 C 232.107 234.815,232.000 236.145,232.000 205.200 C 232.000 174.255,232.107 175.585,229.481 173.984 C 227.398 172.714,172.475 172.781,170.485 174.056 M266.000 173.901 C 263.091 175.354,263.201 174.121,263.201 205.140 C 263.200 235.847,263.116 234.829,265.768 236.446 C 267.445 237.468,322.404 237.632,324.360 236.620 C 327.139 235.184,326.988 236.864,327.110 205.963 C 327.234 174.778,327.303 175.648,324.600 174.118 L 323.000 173.213 295.200 173.207 C 269.527 173.202,267.293 173.255,266.000 173.901 M133.910 174.802 C 136.022 176.089,136.000 175.776,136.000 205.200 C 136.000 234.624,136.022 234.311,133.910 235.598 C 132.098 236.703,78.062 236.866,75.949 235.773 C 73.562 234.539,73.600 235.039,73.600 205.200 C 73.600 175.051,73.547 175.705,76.085 174.603 C 78.484 173.560,132.177 173.745,133.910 174.802 M228.813 174.607 C 231.279 175.882,231.200 174.876,231.200 205.154 C 231.200 234.627,231.222 234.311,229.110 235.598 C 227.298 236.703,173.262 236.866,171.149 235.773 C 168.762 234.539,168.800 235.032,168.800 205.273 C 168.800 175.943,168.790 176.082,170.952 174.764 C 172.681 173.710,226.794 173.563,228.813 174.607 M323.786 174.568 C 326.500 175.702,326.400 174.536,326.400 205.200 C 326.400 235.529,326.479 234.518,324.013 235.793 C 322.245 236.708,268.155 236.708,266.387 235.793 C 263.921 234.518,264.000 235.529,264.000 205.200 C 264.000 174.997,263.931 175.914,266.305 174.626 C 267.910 173.755,321.711 173.701,323.786 174.568 M77.800 269.069 C 75.926 269.481,74.724 270.183,73.890 271.353 L 73.000 272.600 72.889 300.118 C 72.768 330.344,72.752 330.112,75.081 331.889 L 76.538 333.000 104.769 333.000 C 136.260 333.000,134.783 333.130,136.154 330.241 C 136.754 328.977,136.806 326.180,136.708 300.431 L 136.600 272.015 135.365 270.780 C 134.685 270.101,133.425 269.382,132.565 269.182 C 131.036 268.827,79.383 268.721,77.800 269.069 M174.823 269.429 C 171.843 270.242,170.097 271.682,168.953 274.267 L 168.000 276.423 168.000 333.131 C 168.000 376.705,168.111 389.951,168.480 390.320 C 169.233 391.073,230.929 391.009,231.555 390.254 C 231.889 389.852,231.981 374.665,231.904 332.554 L 231.800 275.400 230.863 273.617 C 229.784 271.563,229.273 271.093,226.800 269.882 C 224.435 268.723,178.863 268.326,174.823 269.429 M267.148 269.264 C 266.349 269.480,265.179 270.196,264.548 270.855 L 263.400 272.052 263.290 300.444 C 263.189 326.217,263.241 328.965,263.844 330.235 C 265.206 333.106,263.976 332.986,293.400 333.124 C 323.507 333.265,323.505 333.265,325.543 331.397 L 327.000 330.062 327.000 301.313 C 327.000 269.322,327.167 271.277,324.296 269.708 C 322.789 268.885,270.068 268.475,267.148 269.264 M133.811 270.478 C 136.051 271.499,136.000 270.782,136.000 301.000 C 136.000 330.842,136.021 330.518,134.022 331.588 C 133.515 331.860,123.560 332.000,104.833 332.000 L 76.413 332.000 75.106 330.833 L 73.800 329.666 73.678 302.133 C 73.549 272.856,73.581 272.303,75.464 270.821 C 76.732 269.824,131.666 269.501,133.811 270.478 M226.842 270.856 C 228.378 271.517,229.080 272.133,229.916 273.556 L 231.000 275.400 231.000 332.600 L 231.000 389.800 200.000 389.800 L 169.000 389.800 169.000 332.800 L 169.000 275.800 169.936 273.918 C 170.676 272.429,171.297 271.824,172.914 271.018 L 174.957 270.000 199.904 270.000 C 224.511 270.000,224.879 270.012,226.842 270.856 M324.894 271.167 L 326.200 272.334 326.320 300.067 C 326.403 319.221,326.306 328.263,326.005 329.298 C 325.184 332.119,326.552 332.000,294.878 332.000 L 266.517 332.000 265.485 331.043 C 263.956 329.627,263.957 329.637,264.083 299.867 L 264.200 272.334 265.506 271.167 L 266.813 270.000 295.200 270.000 L 323.587 270.000 324.894 271.167 " stroke="none" fill="#fb9d6c" fill-rule="evenodd"></path><path id="path4" d="M44.500 5.798 C 43.931 6.445,43.861 6.800,44.304 6.800 C 44.471 6.800,44.832 6.440,45.107 6.000 C 45.678 5.087,45.251 4.945,44.500 5.798 M354.893 6.000 C 355.362 6.751,356.000 7.080,356.000 6.571 C 356.000 6.273,354.925 5.200,354.625 5.200 C 354.498 5.200,354.618 5.560,354.893 6.000 M39.900 17.333 C 39.735 17.736,39.600 35.421,39.600 56.633 L 39.600 95.200 23.624 95.200 C 13.404 95.200,7.558 95.344,7.400 95.600 C 7.264 95.820,6.623 96.000,5.976 96.000 C 5.329 96.000,4.800 96.180,4.800 96.400 C 4.800 96.620,4.517 96.800,4.171 96.800 C 3.453 96.800,2.400 97.734,2.400 98.371 C 2.400 98.607,2.174 98.800,1.898 98.800 C -0.096 98.800,-0.867 132.628,1.110 133.387 C 1.407 133.501,1.538 133.777,1.400 134.000 C 1.262 134.223,1.431 134.514,1.775 134.646 C 2.119 134.778,2.400 135.136,2.400 135.443 C 2.400 135.749,2.625 136.004,2.900 136.009 C 3.175 136.014,3.850 136.370,4.400 136.800 C 5.023 137.288,6.031 137.586,7.076 137.591 C 7.998 137.596,8.864 137.780,9.000 138.000 C 9.158 138.255,14.737 138.400,24.424 138.400 L 39.600 138.400 39.600 268.800 C 39.600 355.467,39.734 399.200,40.000 399.200 C 40.604 399.200,40.550 138.540,39.946 138.167 C 37.786 136.832,38.157 136.829,200.000 136.820 C 287.230 136.816,358.827 136.956,359.104 137.132 C 359.507 137.388,359.606 163.558,359.602 268.326 C 359.598 355.702,359.730 399.200,359.998 399.200 C 360.266 399.200,360.400 355.855,360.400 268.800 L 360.400 138.400 375.576 138.400 C 385.263 138.400,390.842 138.255,391.000 138.000 C 391.136 137.780,391.940 137.600,392.786 137.600 C 394.308 137.600,397.600 136.170,397.600 135.509 C 397.600 135.174,397.986 134.645,399.200 133.315 C 400.017 132.420,400.113 100.772,399.300 100.500 C 399.025 100.408,398.800 99.988,398.800 99.567 C 398.800 99.145,398.530 98.800,398.200 98.800 C 397.870 98.800,397.600 98.607,397.600 98.371 C 397.600 97.447,395.299 96.000,393.829 96.000 C 393.289 96.000,392.736 95.820,392.600 95.600 C 392.442 95.344,386.596 95.200,376.376 95.200 L 360.400 95.200 360.394 56.500 C 360.390 32.205,360.243 17.577,360.000 17.200 C 359.748 16.810,359.610 30.525,359.606 56.310 L 359.600 96.020 358.574 96.410 C 356.904 97.045,41.937 96.936,41.076 96.300 C 40.449 95.837,40.392 92.866,40.300 56.200 C 40.245 34.420,40.065 16.930,39.900 17.333 " stroke="none" fill="#dc5353" fill-rule="evenodd"></path></g></svg>