<?xml version="1.0" encoding="UTF-8"?>
<svg width="496px" height="352px" viewBox="0 0 496 352" version="1.1" xmlns="http://www.w3.org/2000/svg" xmlns:xlink="http://www.w3.org/1999/xlink">
    <!-- Generator: Sketch 64 (93537) - https://sketch.com -->
    <title>3</title>
    <desc>Created with Sketch.</desc>
    <g id="Page-1" stroke="none" stroke-width="1" fill="none" fill-rule="evenodd">
        <g id="3" fill="#8588A2" fill-rule="nonzero">
            <path d="M464,0 L32,0 C14.3351123,0.0198395382 0.0198395382,14.3351123 0,32 L0,208 C0.0198395382,225.664888 14.3351123,239.98016 32,240 L464,240 C481.664888,239.98016 495.98016,225.664888 496,208 L496,32 C495.98016,14.3351123 481.664888,0.0198395382 464,0 L464,0 Z M480,208 C479.988431,216.83176 472.83176,223.988431 464,224 L32,224 C23.1682404,223.988431 16.0115689,216.83176 16,208 L16,32 C16.0115689,23.1682404 23.1682404,16.0115689 32,16 L464,16 C472.83176,16.0115689 479.988431,23.1682404 480,32 L480,208 Z" id="Shape"></path>
            <path d="M432,160 L64,160 C59.581722,160 56,163.581722 56,168 L56,200 C56,204.418278 59.581722,208 64,208 L432,208 C436.418278,208 440,204.418278 440,200 L440,168 C440,163.581722 436.418278,160 432,160 Z M424,192 L72,192 L72,176 L424,176 L424,192 Z" id="Shape"></path>
            <path d="M160,72 L160,40 C160,35.581722 156.418278,32 152,32 L40,32 C35.581722,32 32,35.581722 32,40 L32,72 C32,76.418278 35.581722,80 40,80 L152,80 C156.418278,80 160,76.418278 160,72 Z M144,64 L48,64 L48,48 L144,48 L144,64 Z" id="Shape"></path>
            <path d="M254.656,259.562 C253.077543,257.167099 250.33775,255.800512 247.475097,255.980223 C244.612444,256.159934 242.065071,257.858438 240.79852,260.431943 C239.531969,263.005448 239.740091,266.06007 241.344,268.438 C241.467,268.623 253.576,287.11 242.344,298.343 C226.02,314.667 234.552,338.249 241.344,348.438 C243.805332,352.087132 248.752191,353.062437 252.414396,350.6206 C256.076602,348.178763 257.078273,343.237175 254.656,339.562 C254.533,339.377 242.424,320.89 253.656,309.657 C269.981,293.333 261.449,269.751 254.656,259.562 Z" id="Path"></path>
            <path d="M206.656,259.562 C205.077543,257.167099 202.33775,255.800512 199.475097,255.980223 C196.612444,256.159934 194.065071,257.858438 192.79852,260.431943 C191.531969,263.005448 191.740091,266.06007 193.344,268.438 C193.467,268.623 205.576,287.11 194.344,298.343 C178.02,314.667 186.552,338.249 193.344,348.438 C195.805332,352.087132 200.752191,353.062437 204.414396,350.6206 C208.076602,348.178763 209.078273,343.237175 206.656,339.562 C206.533,339.377 194.424,320.89 205.656,309.657 C221.981,293.333 213.449,269.751 206.656,259.562 Z" id="Path"></path>
            <path d="M302.656,259.562 C301.077543,257.167099 298.33775,255.800512 295.475097,255.980223 C292.612444,256.159934 290.065071,257.858438 288.79852,260.431943 C287.531969,263.005448 287.740091,266.06007 289.344,268.438 C289.467,268.623 301.576,287.11 290.344,298.343 C274.02,314.667 282.552,338.249 289.344,348.438 C291.805332,352.087132 296.752191,353.062437 300.414396,350.6206 C304.076602,348.178763 305.078273,343.237175 302.656,339.562 C302.533,339.377 290.424,320.89 301.656,309.657 C317.981,293.333 309.449,269.751 302.656,259.562 Z" id="Path"></path>
            <path d="M350.656,259.562 C349.077543,257.167099 346.33775,255.800512 343.475097,255.980223 C340.612444,256.159934 338.065071,257.858438 336.79852,260.431943 C335.531969,263.005448 335.740091,266.06007 337.344,268.438 C337.467,268.623 349.576,287.11 338.344,298.343 C322.02,314.667 330.552,338.249 337.344,348.438 C339.805332,352.087132 344.752191,353.062437 348.414396,350.6206 C352.076602,348.178763 353.078273,343.237175 350.656,339.562 C350.533,339.377 338.424,320.89 349.656,309.657 C365.981,293.333 357.449,269.751 350.656,259.562 Z" id="Path"></path>
            <path d="M158.656,259.562 C157.077543,257.167099 154.33775,255.800512 151.475097,255.980223 C148.612444,256.159934 146.065071,257.858438 144.79852,260.431943 C143.531969,263.005448 143.740091,266.06007 145.344,268.438 C145.467,268.623 157.576,287.11 146.344,298.343 C130.02,314.667 138.552,338.249 145.344,348.438 C147.805332,352.087132 152.752191,353.062437 156.414396,350.6206 C160.076602,348.178763 161.078273,343.237175 158.656,339.562 C158.533,339.377 146.424,320.89 157.656,309.657 C173.981,293.333 165.449,269.751 158.656,259.562 Z" id="Path"></path>
            <path d="M456,32 L424,32 C419.581722,32 416,35.581722 416,40 L416,72 C416,76.418278 419.581722,80 424,80 L456,80 C460.418278,80 464,76.418278 464,72 L464,40 C464,35.581722 460.418278,32 456,32 Z M448,64 L432,64 L432,48 L448,48 L448,64 Z" id="Shape"></path>
            <path d="M368,80 L400,80 C404.418278,80 408,76.418278 408,72 L408,40 C408,35.581722 404.418278,32 400,32 L368,32 C363.581722,32 360,35.581722 360,40 L360,72 C360,76.418278 363.581722,80 368,80 Z M376,48 L392,48 L392,64 L376,64 L376,48 Z" id="Shape"></path>
        </g>
    </g>
</svg>