<?xml version="1.0" encoding="UTF-8"?>
<svg width="496px" height="432px" viewBox="0 0 496 432" version="1.1" xmlns="http://www.w3.org/2000/svg" xmlns:xlink="http://www.w3.org/1999/xlink">
    <!-- Generator: Sketch 64 (93537) - https://sketch.com -->
    <title>4</title>
    <desc>Created with Sketch.</desc>
    <g id="Page-1" stroke="none" stroke-width="1" fill="none" fill-rule="evenodd">
        <g id="4" fill="#8588A2" fill-rule="nonzero">
            <path d="M488,119.999999 L320,119.999999 L320,71.9999989 C320,32.235498 287.764502,-1.07288361e-06 248,-1.07288361e-06 C208.235498,-1.07288361e-06 176,32.235498 176,71.9999989 L176,119.999999 L168,119.999999 L168,71.9999989 C168,46.2768773 154.276878,22.5077315 132,9.64617003 C109.723123,-3.21539144 82.2768774,-3.21539144 60,9.64617003 C37.723122,22.5077315 24,46.2768773 24,71.9999989 L24,119.999999 L8,119.999999 C3.581722,119.999999 0,123.581722 0,127.999999 L0,423.999999 C0,428.418278 3.581722,431.999999 8,431.999999 L488,431.999999 C492.418278,431.999999 496,428.418278 496,423.999999 L496,127.999999 C496,123.581722 492.418278,119.999999 488,119.999999 Z M192,72 C192,41.072054 217.072054,16 248,16 C278.927946,16 304,41.072054 304,72 L304,249.58 C298.71,250.36 293.376667,251.273333 288,252.32 L288,72 C288,49.90861 270.09139,32 248,32 C225.90861,32 208,49.90861 208,72 L208,120 L192,120 L192,72 Z M272,72 L272,120 L224,120 L224,72 C224,58.745166 234.745166,48 248,48 C261.254834,48 272,58.745166 272,72 Z M168,136 L272,136 L272,144 L168,144 L168,136 Z M168,160 L272,160 L272,168 L168,168 L168,160 Z M168,184 L272,184 L272,200 L168,200 L168,184 Z M168,216 L272,216 L272,224 L168,224 L168,216 Z M168,240 L272,240 L272,255.81 C263.2,257.95 254.34,260.45 245.47,263.41 C220.344888,271.646735 194.34677,276.93227 168,279.16 L168,240 Z M40,72.0000012 C40,41.0720545 65.0720545,16.0000012 96,16.0000012 C126.927946,16.0000012 152,41.0720545 152,72.0000012 L152,280.26 C146.55,280.52 141.216667,280.67 136,280.71 L136,72.0000012 C136,49.90861 118.09139,32.0000012 96,32.0000012 C73.90861,32.0000012 56,49.90861 56,72.0000012 L56,120.000001 L40,120.000001 L40,72.0000012 Z M120,72 L120,120 L72,120 L72,72 C72,58.745166 82.745166,48 96,48 C109.254834,48 120,58.745166 120,72 Z M16,136 L120,136 L120,280.56 C106.94,280.19 94.9,279.26 84.31,278.1 C61.2217885,275.628191 38.3752023,271.266905 16,265.06 L16,136 Z M480,416 L16,416 L16,388.69 C37.6999613,394.43525 59.8028075,398.53357 82.12,400.95 C98.6995986,402.793527 115.368225,403.721602 132.05,403.73 C167.48,403.73 208.97,399.44 250.53,385.59 C310.99,365.44 371.54,366.48 411.69,370.9 C434.778211,373.371809 457.624798,377.733095 480,383.94 L480,416 Z M480,367.31 C458.300039,361.56475 436.197193,357.46643 413.88,355.05 C372.03,350.4 308.84,349.29 245.47,370.41 C185.01,390.56 124.46,389.52 84.31,385.1 C61.2217885,382.628191 38.3752023,378.266905 16,372.06 L16,353.69 C37.6999613,359.43525 59.8028075,363.53357 82.12,365.95 C98.6995986,367.793527 115.368225,368.721602 132.05,368.73 C167.48,368.73 208.97,364.44 250.53,350.59 C310.99,330.44 371.54,331.48 411.69,335.9 C434.778211,338.371809 457.624798,342.733095 480,348.94 L480,367.31 Z M480,332.31 C458.300039,326.56475 436.197193,322.46643 413.88,320.05 C372.03,315.4 308.84,314.29 245.47,335.41 C185.01,355.56 124.46,354.52 84.31,350.1 C61.2217885,347.628191 38.3752023,343.266905 16,337.06 L16,315.69 C37.6999613,321.43525 59.8028075,325.53357 82.12,327.95 C98.6995986,329.793527 115.368225,330.721602 132.05,330.73 C167.48,330.73 208.97,326.44 250.53,312.59 C310.99,292.44 371.54,293.48 411.69,297.9 C434.778211,300.371809 457.624798,304.733095 480,310.94 L480,332.31 Z M480,294.31 C458.300039,288.56475 436.197193,284.46643 413.88,282.05 C372.03,277.4 308.84,276.29 245.47,297.41 C185.01,317.56 124.46,316.52 84.31,312.1 C61.2217885,309.628191 38.3752023,305.266905 16,299.06 L16,281.69 C37.6999613,287.43525 59.8028075,291.53357 82.12,293.95 C98.6995986,295.793527 115.368225,296.721602 132.05,296.73 C167.48,296.73 208.97,292.44 250.53,278.59 C310.99,258.44 371.54,259.48 411.69,263.9 C434.778211,266.371809 457.624798,270.733095 480,276.94 L480,294.31 Z M480,260.31 C458.300039,254.56475 436.197193,250.46643 413.88,248.05 C382.694072,244.535382 351.221595,244.367761 320,247.55 L320,136 L480,136 L480,260.31 Z" id="Shape"></path>
        </g>
    </g>
</svg>