<?xml version="1.0" encoding="UTF-8"?>
<svg width="496px" height="480px" viewBox="0 0 496 480" version="1.1" xmlns="http://www.w3.org/2000/svg" xmlns:xlink="http://www.w3.org/1999/xlink">
    <!-- Generator: Sketch 64 (93537) - https://sketch.com -->
    <title>television</title>
    <desc>Created with Sketch.</desc>
    <g id="Page-1" stroke="none" stroke-width="1" fill="none" fill-rule="evenodd">
        <g id="television" fill="#8588A2" fill-rule="nonzero">
            <path d="M468,88 L263.71,88 L318.47,12.71 C320.152721,10.3984916 320.474444,7.36484878 319.31398,4.7518154 C318.153515,2.13878203 315.687165,0.343340093 312.84398,0.0418152479 C310.000794,-0.259709597 307.212721,0.978491447 305.53,3.29 L248,82.4 L190.47,3.29 C188.787279,0.978491565 185.999206,-0.259709377 183.15602,0.0418154952 C180.312835,0.343340368 177.846485,2.13878225 176.68602,4.75181555 C175.525556,7.36484885 175.847279,10.3984916 177.53,12.71 L232.29,88 L28,88 C12.5431092,88.0170846 0.0170846292,100.543109 0,116 L0,420 C0.0170846292,435.456891 12.5431092,447.982915 28,448 L59.06,448 L72.84,475.58 C74.1984869,478.289054 76.9694128,480 80,480 L416,480 C419.030587,480 421.801513,478.289054 423.16,475.58 L436.94,448 L468,448 C483.456891,447.982915 495.982915,435.456891 496,420 L496,116 C495.982915,100.543109 483.456891,88.0170846 468,88 L468,88 Z M411.06,464 L84.94,464 L76.94,448 L419.06,448 L411.06,464 Z M480,420 C479.994486,426.625132 474.625132,431.994486 468,432 L28,432 C21.3748683,431.994486 16.0055141,426.625132 16,420 L16,116 C16.0055141,109.374868 21.3748683,104.005514 28,104 L468,104 C474.625132,104.005514 479.994486,109.374868 480,116 L480,420 Z" id="Shape"></path>
            <path d="M348,120 L60,120 C44.5433374,120.017635 32.0176345,132.543337 32,148 L32,388 C32.0176345,403.456663 44.5433374,415.982365 60,416 L348,416 C363.456663,415.982365 375.982365,403.456663 376,388 L376,148 C375.982365,132.543337 363.456663,120.017635 348,120 L348,120 Z M360,388 C359.992835,394.624447 354.624447,399.992835 348,400 L60,400 C53.375553,399.992835 48.0071648,394.624447 48,388 L48,148 C48.0071648,141.375553 53.375553,136.007165 60,136 L348,136 C354.624447,136.007165 359.992835,141.375553 360,148 L360,388 Z" id="Shape"></path>
            <path d="M424,128 C401.90861,128 384,145.90861 384,168 C384,190.09139 401.90861,208 424,208 C446.09139,208 464,190.09139 464,168 C463.975201,145.91889 446.08111,128.024799 424,128 Z M424,192 C410.745166,192 400,181.254834 400,168 C400,154.745166 410.745166,144 424,144 C437.254834,144 448,154.745166 448,168 C447.98457,181.248438 437.248438,191.98457 424,192 Z" id="Shape"></path>
            <path d="M456,216 L392,216 C387.581722,216 384,219.581722 384,224 L384,256 C384,260.418278 387.581722,264 392,264 L456,264 C460.418278,264 464,260.418278 464,256 L464,224 C464,219.581722 460.418278,216 456,216 Z M448,248 L400,248 L400,232 L448,232 L448,248 Z" id="Shape"></path>
            <path d="M456,272 L392,272 C387.581722,272 384,275.581722 384,280 L384,400 C384,404.418278 387.581722,408 392,408 L456,408 C460.418278,408 464,404.418278 464,400 L464,280 C464,275.581722 460.418278,272 456,272 Z M448,392 L400,392 L400,288 L448,288 L448,392 Z" id="Shape"></path>
        </g>
    </g>
</svg>