<?xml version="1.0" encoding="UTF-8"?>
<svg width="400px" height="496px" viewBox="0 0 400 496" version="1.1" xmlns="http://www.w3.org/2000/svg" xmlns:xlink="http://www.w3.org/1999/xlink">
    <!-- Generator: Sketch 64 (93537) - https://sketch.com -->
    <title>washing-machine</title>
    <desc>Created with Sketch.</desc>
    <g id="Page-1" stroke="none" stroke-width="1" fill="none" fill-rule="evenodd">
        <g id="washing-machine" fill="#8588A2" fill-rule="nonzero">
            <path d="M372,0 L28,0 C12.5431092,0.0170846292 0.0170846292,12.5431092 0,28 L0,444 C0.00951384383,454.810279 6.23554226,464.651295 16,469.29 L16,488 C16,492.418278 19.581722,496 24,496 L72,496 C76.418278,496 80,492.418278 80,488 L80,472 L320,472 L320,488 C320,492.418278 323.581722,496 328,496 L376,496 C380.418278,496 384,492.418278 384,488 L384,469.29 C393.764458,464.651295 399.990486,454.810279 400,444 L400,28 C399.982915,12.5431092 387.456891,0.0170846292 372,0 L372,0 Z M16,28 C16.0055141,21.3748683 21.3748683,16.0055141 28,16 L304,16 L304,80 L16,80 L16,28 Z M64,480 L32,480 L32,472 L64,472 L64,480 Z M368,480 L336,480 L336,472 L368,472 L368,480 Z M384,444 C383.994486,450.625132 378.625132,455.994486 372,456 L28,456 C21.3748683,455.994486 16.0055141,450.625132 16,444 L16,96 L384,96 L384,444 Z M384,80 L320,80 L320,16 L372,16 C378.625132,16.0055141 383.994486,21.3748683 384,28 L384,80 Z" id="Shape"></path>
            <path d="M352,280 C352,196.187 283.813,128 200,128 C116.187,128 48,196.187 48,280 C48,363.813 116.187,432 200,432 C283.813,432 352,363.813 352,280 Z M200,416 C125.009,416 64,354.991 64,280 C64,205.009 125.009,144 200,144 C274.991,144 336,205.009 336,280 C336,354.991 274.991,416 200,416 Z" id="Shape"></path>
            <path d="M200,160 C133.72583,160 80,213.72583 80,280 C80,346.27417 133.72583,400 200,400 C266.27417,400 320,346.27417 320,280 C319.925052,213.756899 266.243101,160.074948 200,160 L200,160 Z M200,176 C255.263928,176.065931 300.85078,219.29164 303.853,274.474 C289.402,279.333 245.905,290.974 203.153,272.647 C159.653,254.005 116.76,262.521 96.637,268.535 C102.542928,215.891054 147.025851,176.068029 200,176 L200,176 Z M200,384 C144.736072,383.934069 99.14922,340.70836 96.147,285.526 C110.598,280.667 154.095,269.026 196.847,287.353 C214.942945,294.990862 234.405665,298.860609 254.047,298.726 C270.747374,298.670763 287.353834,296.224952 303.361,291.463 C297.456099,344.106981 252.974067,383.930839 200,384 L200,384 Z" id="Shape"></path>
            <path d="M32,40 L112,40 C116.418278,40 120,36.418278 120,32 C120,27.581722 116.418278,24 112,24 L32,24 C27.581722,24 24,27.581722 24,32 C24,36.418278 27.581722,40 32,40 Z" id="Path"></path>
            <path d="M32,64 L72,64 C76.418278,64 80,60.418278 80,56 C80,51.581722 76.418278,48 72,48 L32,48 C27.581722,48 24,51.581722 24,56 C24,60.418278 27.581722,64 32,64 Z" id="Path"></path>
            <path d="M352,72 C365.254834,72 376,61.254834 376,48 C376,34.745166 365.254834,24 352,24 C338.745166,24 328,34.745166 328,48 C328.01488,61.2486657 338.751334,71.9851203 352,72 L352,72 Z M352,40 C356.418278,40 360,43.581722 360,48 C360,52.418278 356.418278,56 352,56 C347.581722,56 344,52.418278 344,48 C344.00496,43.5837781 347.583778,40.0049599 352,40 Z" id="Shape"></path>
            <path d="M368,432 L312,432 C307.581722,432 304,435.581722 304,440 C304,444.418278 307.581722,448 312,448 L368,448 C372.418278,448 376,444.418278 376,440 C376,435.581722 372.418278,432 368,432 Z" id="Path"></path>
            <path d="M368,408 L344,408 C339.581722,408 336,411.581722 336,416 C336,420.418278 339.581722,424 344,424 L368,424 C372.418278,424 376,420.418278 376,416 C376,411.581722 372.418278,408 368,408 Z" id="Path"></path>
        </g>
    </g>
</svg>