<svg id="svg" version="1.1" xmlns="http://www.w3.org/2000/svg" xmlns:xlink="http://www.w3.org/1999/xlink" width="400" height="400" viewBox="0, 0, 400,400"><g id="svgg"><path id="path0" d="M181.154 2.100 C 181.128 3.255,181.145 12.840,181.191 23.400 C 181.237 33.960,181.161 42.489,181.023 42.353 C 180.885 42.217,180.765 40.748,180.756 39.088 C 180.736 35.222,180.261 34.463,178.246 35.081 C 177.292 35.374,176.717 35.389,176.554 35.125 C 176.418 34.905,175.607 34.792,174.753 34.873 L 173.200 35.021 173.200 31.884 C 173.200 27.883,172.812 27.087,171.024 27.422 C 170.228 27.571,169.583 27.497,169.422 27.236 C 169.265 26.982,167.871 26.803,166.076 26.806 C 164.384 26.809,163.226 26.956,163.503 27.131 C 163.779 27.307,162.744 27.439,161.203 27.425 C 159.662 27.411,158.400 27.265,158.400 27.100 C 158.400 26.935,156.420 26.800,154.000 26.800 C 151.580 26.800,149.600 26.935,149.600 27.100 C 149.600 27.265,148.338 27.411,146.797 27.425 C 145.256 27.439,144.221 27.307,144.497 27.131 C 144.774 26.956,143.616 26.809,141.924 26.806 C 140.129 26.803,138.735 26.982,138.578 27.236 C 138.417 27.496,137.774 27.572,136.985 27.424 C 136.112 27.260,135.550 27.350,135.331 27.688 C 134.904 28.348,134.782 60.742,135.205 61.003 C 135.381 61.112,135.334 61.823,135.100 62.584 C 134.428 64.776,135.059 65.200,138.995 65.200 L 142.291 65.200 142.544 67.042 C 142.683 68.055,142.689 69.554,142.558 70.373 C 142.246 72.325,143.143 73.291,145.157 73.173 C 145.951 73.126,147.452 73.113,148.493 73.144 L 150.386 73.200 150.293 76.563 C 150.174 80.856,149.953 80.694,156.041 80.780 L 157.481 80.800 157.726 84.267 C 158.019 88.417,157.983 88.386,162.500 88.394 L 166.000 88.400 166.000 92.148 L 166.000 95.897 163.500 96.229 C 162.125 96.412,160.374 96.570,159.608 96.581 C 157.990 96.603,157.728 97.262,157.647 101.500 L 157.600 104.000 155.900 104.079 C 154.965 104.122,153.434 104.113,152.498 104.059 C 150.302 103.931,149.866 104.888,150.240 109.018 L 150.503 111.923 142.552 111.776 C 128.193 111.511,127.602 111.695,127.292 116.529 C 127.054 120.236,126.607 120.494,126.256 117.128 C 125.860 113.340,124.225 112.000,120.003 112.000 C 119.282 112.000,119.241 111.478,119.123 100.764 C 119.004 89.900,118.972 89.506,118.158 88.847 C 117.695 88.472,116.995 87.488,116.602 86.660 C 115.865 85.109,114.053 83.491,112.536 83.031 C 111.694 82.776,111.668 82.563,111.536 74.752 C 111.374 65.225,111.458 65.398,107.200 65.786 C 103.941 66.083,103.832 65.995,103.284 62.631 C 102.562 58.190,102.149 58.044,90.300 58.017 C 81.738 57.999,80.800 58.236,80.800 60.426 C 80.800 61.451,77.028 65.200,75.997 65.200 C 75.585 65.200,75.131 65.387,74.990 65.616 C 74.848 65.845,74.361 65.914,73.906 65.770 C 73.264 65.567,73.133 65.648,73.319 66.133 C 73.479 66.551,73.380 66.691,73.022 66.553 C 70.945 65.756,67.502 68.141,66.811 70.854 C 66.567 71.814,66.204 72.960,66.005 73.400 C 65.552 74.403,65.588 94.365,66.045 95.256 C 66.285 95.725,66.184 95.962,65.690 96.090 C 65.108 96.240,64.983 95.924,64.888 94.063 C 64.607 88.551,65.278 88.702,40.714 88.645 C 22.123 88.603,20.782 88.646,20.114 89.314 C 19.450 89.978,19.400 91.264,19.400 107.600 C 19.400 128.268,18.961 126.522,24.217 126.741 C 27.509 126.878,27.612 126.912,27.839 127.941 C 28.667 131.703,29.729 132.994,32.341 133.413 C 33.143 133.542,34.267 133.901,34.837 134.209 C 35.435 134.533,36.961 134.763,38.437 134.752 C 39.847 134.741,41.315 134.748,41.700 134.766 C 42.317 134.796,42.400 135.269,42.400 138.777 L 42.400 142.754 37.611 142.586 C 34.977 142.493,32.412 142.569,31.911 142.755 C 31.380 142.951,30.637 142.926,30.129 142.695 C 28.427 141.920,27.082 142.647,27.371 144.187 C 27.517 144.965,27.450 145.646,27.212 145.792 C 26.692 146.114,26.667 149.887,27.184 150.067 C 27.396 150.140,26.035 150.217,24.160 150.239 C 19.108 150.296,19.400 149.575,19.400 161.994 C 19.400 169.754,19.526 172.486,19.900 172.860 C 20.175 173.135,20.404 173.729,20.409 174.180 C 20.440 177.069,22.985 179.419,26.363 179.676 C 27.013 179.725,27.512 179.954,27.472 180.183 C 27.433 180.412,28.221 180.653,29.225 180.719 C 30.755 180.818,31.161 181.026,31.739 182.005 C 32.118 182.646,32.962 183.487,33.614 183.872 C 34.428 184.353,34.802 184.890,34.806 185.586 C 34.820 187.881,36.323 188.382,43.200 188.380 C 55.125 188.376,56.850 187.760,57.127 183.408 L 57.293 180.800 66.147 180.780 C 84.849 180.736,87.600 179.920,87.600 174.413 C 87.600 173.746,87.780 173.200,88.000 173.200 C 88.220 173.200,88.400 174.102,88.400 175.204 C 88.400 183.705,90.186 187.392,94.442 187.678 L 96.200 187.796 96.200 200.299 C 96.200 207.176,96.146 212.640,96.080 212.442 C 95.742 211.425,90.755 212.989,90.033 214.338 C 89.472 215.386,88.400 222.398,88.400 225.019 C 88.400 226.403,88.248 227.154,88.000 227.000 C 87.780 226.864,87.600 226.218,87.600 225.564 C 87.600 220.313,84.093 219.237,67.300 219.339 L 57.200 219.400 57.177 217.600 C 57.116 212.671,56.153 212.124,46.867 211.742 C 37.215 211.344,34.800 211.864,34.800 214.342 C 34.800 215.121,34.465 215.625,33.614 216.128 C 32.962 216.513,32.113 217.362,31.728 218.014 C 30.977 219.286,30.921 219.312,28.800 219.365 C 28.030 219.384,27.433 219.588,27.472 219.817 C 27.512 220.046,27.013 220.275,26.363 220.324 C 22.985 220.581,20.440 222.931,20.409 225.820 C 20.404 226.271,20.175 226.865,19.900 227.140 C 19.526 227.514,19.400 230.246,19.400 238.006 C 19.400 250.207,19.155 249.537,23.741 249.884 L 26.800 250.115 26.800 252.034 C 26.800 253.089,26.991 254.071,27.223 254.214 C 27.472 254.368,27.537 254.977,27.381 255.688 C 26.988 257.478,27.440 257.587,35.274 257.594 L 42.349 257.600 42.474 261.717 L 42.600 265.835 38.800 265.784 C 36.710 265.756,34.730 265.873,34.400 266.045 C 34.070 266.216,33.098 266.469,32.240 266.608 C 30.231 266.931,28.544 268.605,28.178 270.640 C 27.694 273.331,27.591 273.400,24.043 273.400 C 18.993 273.400,19.400 271.736,19.400 292.400 C 19.400 308.740,19.450 310.021,20.115 310.686 C 20.782 311.352,22.147 311.400,40.515 311.395 C 64.849 311.389,64.068 311.538,64.839 306.749 C 65.210 304.448,65.648 303.623,66.509 303.606 C 66.679 303.603,66.565 304.005,66.256 304.500 C 65.599 305.552,65.376 325.206,66.005 326.600 C 66.204 327.040,66.567 328.186,66.811 329.146 C 67.497 331.840,70.943 334.245,72.992 333.458 C 73.287 333.345,73.479 333.544,73.450 333.932 C 73.412 334.442,73.802 334.629,75.097 334.723 C 77.048 334.864,80.800 338.056,80.800 339.574 C 80.800 341.968,84.165 342.693,93.197 342.247 C 102.080 341.808,102.598 341.563,103.276 337.469 L 103.718 334.800 106.279 334.800 C 111.428 334.800,111.587 334.493,111.595 324.527 C 111.600 317.334,111.610 317.251,112.500 316.981 C 114.111 316.491,115.925 314.840,116.646 313.206 C 117.034 312.326,117.663 311.507,118.043 311.386 C 118.822 311.139,119.302 309.027,119.194 306.321 C 119.157 305.375,119.143 300.902,119.163 296.381 L 119.200 288.162 121.900 287.700 C 125.195 287.136,125.866 286.437,126.234 283.177 C 126.596 279.982,127.048 280.177,127.295 283.635 C 127.623 288.217,127.952 288.325,141.752 288.371 L 150.503 288.400 150.234 291.129 C 149.792 295.618,150.098 296.000,154.134 296.000 L 157.487 296.000 157.704 299.476 C 157.975 303.823,158.178 304.008,162.567 303.924 L 165.800 303.863 165.914 307.897 C 166.021 311.696,165.983 311.921,165.265 311.733 C 164.846 311.623,163.852 311.714,163.055 311.934 C 162.184 312.174,161.516 312.187,161.380 311.967 C 161.098 311.512,159.183 311.496,158.478 311.943 C 158.144 312.155,157.872 313.574,157.722 315.887 L 157.488 319.499 154.179 319.449 C 150.114 319.389,150.179 319.322,150.293 323.437 L 150.386 326.800 148.217 326.800 C 147.023 326.800,145.933 326.986,145.792 327.212 C 145.646 327.450,144.965 327.517,144.187 327.371 C 142.647 327.082,141.920 328.427,142.695 330.129 C 142.946 330.681,142.955 331.366,142.718 332.000 C 142.513 332.550,142.409 333.450,142.488 334.000 L 142.632 335.000 139.107 334.970 C 137.034 334.953,135.442 335.117,135.244 335.370 C 134.432 336.403,134.941 372.022,135.776 372.632 C 136.419 373.102,139.593 373.200,154.214 373.200 C 174.969 373.200,173.201 373.650,173.199 368.369 L 173.198 365.000 176.421 365.131 C 180.592 365.301,180.732 365.171,180.759 361.120 C 180.770 359.342,180.891 357.777,181.027 357.643 C 181.163 357.510,181.237 366.040,181.191 376.600 C 181.145 387.160,181.128 396.745,181.154 397.900 L 181.200 400.000 200.200 400.000 L 219.200 400.000 219.225 381.700 C 219.241 370.367,219.388 363.743,219.612 364.300 C 219.948 365.135,220.222 365.200,223.387 365.200 L 226.800 365.200 226.800 367.200 C 226.800 368.374,226.980 369.200,227.235 369.200 C 227.521 369.200,227.578 369.748,227.401 370.797 C 227.156 372.244,227.223 372.429,228.122 372.770 C 230.099 373.522,263.608 373.317,264.457 372.548 C 265.160 371.912,265.200 370.902,265.200 353.787 C 265.200 333.580,265.296 334.268,262.584 335.100 C 261.772 335.349,261.108 335.375,260.977 335.162 C 260.854 334.963,260.043 334.800,259.176 334.800 L 257.600 334.800 257.600 331.449 C 257.600 327.757,257.195 326.985,255.482 327.415 C 254.927 327.554,254.369 327.474,254.220 327.232 C 254.073 326.995,253.063 326.800,251.976 326.800 L 250.000 326.800 249.980 325.300 C 249.897 319.152,250.065 319.386,245.765 319.451 L 242.400 319.501 242.344 317.651 C 242.313 316.633,242.326 315.151,242.373 314.357 C 242.496 312.252,241.539 311.445,239.285 311.754 C 238.313 311.887,236.809 311.883,235.944 311.745 L 234.372 311.493 234.486 307.678 L 234.600 303.862 237.844 303.924 C 242.160 304.007,242.457 303.697,242.303 299.260 L 242.190 296.000 245.646 296.000 C 249.464 296.000,250.119 295.656,249.990 293.720 C 249.949 293.104,249.934 291.675,249.958 290.544 L 250.000 288.488 260.120 288.343 C 272.479 288.165,272.098 288.304,272.844 283.711 L 273.349 280.600 273.795 283.306 C 274.349 286.666,274.814 287.137,278.140 287.707 C 280.577 288.124,280.805 288.248,280.861 289.181 C 280.894 289.742,280.939 294.761,280.961 300.335 C 280.999 310.131,281.028 310.493,281.842 311.152 C 282.305 311.527,283.005 312.512,283.398 313.340 C 284.562 315.793,288.174 318.052,288.476 316.517 C 288.553 316.122,288.576 318.500,288.525 321.800 C 288.336 334.228,288.574 334.800,293.928 334.800 L 296.282 334.800 296.724 337.469 C 297.411 341.617,297.830 341.797,307.810 342.247 C 316.479 342.638,319.200 341.999,319.200 339.574 C 319.200 337.926,323.015 334.800,325.027 334.800 C 326.273 334.800,326.800 334.635,326.800 334.245 C 326.800 333.920,327.419 333.573,328.286 333.410 C 331.429 332.821,332.726 331.552,333.404 328.406 C 333.570 327.639,333.943 326.648,334.234 326.204 C 335.037 324.979,334.997 307.246,334.187 305.307 C 333.470 303.592,333.470 303.600,334.152 303.600 C 334.530 303.600,334.838 304.510,335.133 306.500 C 335.879 311.535,335.194 311.400,360.085 311.400 C 377.875 311.400,379.219 311.351,379.885 310.686 C 380.550 310.021,380.600 308.738,380.600 292.400 C 380.600 271.736,381.007 273.400,375.957 273.400 C 372.409 273.400,372.306 273.331,371.822 270.640 C 371.456 268.605,369.769 266.931,367.760 266.608 C 366.902 266.469,365.930 266.214,365.600 266.040 C 365.270 265.866,363.560 265.757,361.800 265.799 C 357.371 265.904,357.600 266.135,357.600 261.557 L 357.600 257.600 364.724 257.600 C 373.501 257.600,373.231 257.737,373.098 253.345 L 373.000 250.090 376.121 249.910 C 380.848 249.637,380.600 250.296,380.600 238.006 C 380.600 230.246,380.474 227.514,380.100 227.140 C 379.825 226.865,379.596 226.271,379.591 225.820 C 379.563 223.140,376.818 220.400,374.163 220.400 C 373.822 220.400,373.258 220.115,372.910 219.767 C 372.481 219.338,371.878 219.207,371.038 219.360 C 369.606 219.622,369.269 219.441,368.114 217.786 C 367.649 217.118,366.802 216.322,366.234 216.018 C 365.505 215.628,365.200 215.139,365.200 214.361 C 365.200 211.862,362.806 211.343,353.133 211.742 C 343.847 212.124,342.884 212.671,342.823 217.600 L 342.800 219.400 332.700 219.339 C 315.907 219.237,312.400 220.313,312.400 225.564 C 312.400 226.218,312.220 226.864,312.000 227.000 C 311.749 227.155,311.600 226.251,311.600 224.564 C 311.600 216.466,309.465 212.400,305.213 212.400 L 304.000 212.400 303.986 210.000 C 303.978 208.680,303.971 204.270,303.971 200.200 C 303.971 196.130,303.978 191.630,303.986 190.200 L 304.000 187.600 305.213 187.600 C 309.480 187.600,311.072 184.832,311.481 176.700 C 311.642 173.490,312.400 171.605,312.400 174.413 C 312.400 178.462,317.015 181.050,323.768 180.789 C 324.666 180.754,329.294 180.743,334.053 180.763 L 342.707 180.800 342.873 183.408 C 343.150 187.760,344.875 188.376,356.800 188.380 C 363.677 188.382,365.180 187.881,365.194 185.586 C 365.198 184.890,365.572 184.353,366.386 183.872 C 367.038 183.487,367.887 182.638,368.272 181.986 C 368.908 180.909,369.167 180.800,371.086 180.800 C 372.698 180.800,373.200 180.658,373.200 180.200 C 373.200 179.847,373.571 179.596,374.100 179.591 C 376.811 179.565,379.600 176.858,379.600 174.253 C 379.600 173.962,379.868 173.186,380.195 172.531 C 381.075 170.766,380.894 151.921,379.988 151.016 C 379.604 150.632,378.227 150.308,376.288 150.144 L 373.200 149.883 373.144 148.241 C 373.113 147.339,373.126 145.951,373.173 145.157 C 373.323 142.603,372.960 142.491,364.847 142.590 L 357.649 142.678 357.525 138.639 L 357.400 134.600 360.982 134.688 C 363.500 134.749,364.748 134.617,365.182 134.242 C 365.522 133.948,366.516 133.599,367.391 133.465 C 370.151 133.042,371.390 131.609,372.170 127.941 C 372.388 126.912,372.488 126.878,375.783 126.741 C 381.039 126.522,380.600 128.267,380.600 107.600 C 380.600 91.264,380.550 89.978,379.886 89.314 C 378.239 87.668,337.446 88.457,336.031 90.163 C 335.351 90.982,334.644 95.748,335.176 95.925 C 335.409 96.003,335.600 96.215,335.600 96.396 C 335.600 96.577,335.159 96.517,334.620 96.262 C 333.714 95.835,333.684 95.732,334.220 94.913 C 334.962 93.782,334.895 74.486,334.146 73.561 C 333.897 73.252,333.560 72.370,333.398 71.600 C 332.737 68.458,331.433 67.180,328.286 66.590 C 327.469 66.436,326.800 66.139,326.800 65.929 C 326.800 65.718,326.455 65.656,326.034 65.789 C 325.612 65.923,325.152 65.845,325.010 65.616 C 324.869 65.387,324.415 65.200,324.003 65.200 C 322.972 65.200,319.200 61.451,319.200 60.426 C 319.200 58.236,318.262 57.999,309.700 58.017 C 297.851 58.044,297.438 58.190,296.716 62.631 C 296.168 65.995,296.059 66.083,292.800 65.786 C 288.470 65.392,288.606 65.068,288.589 75.826 C 288.575 84.451,288.533 84.942,287.786 85.360 C 287.067 85.761,287.059 85.752,287.699 85.251 C 288.796 84.392,288.643 82.672,287.500 83.019 C 285.948 83.491,284.141 85.095,283.398 86.660 C 283.005 87.488,282.305 88.473,281.842 88.848 C 281.028 89.507,280.999 89.869,280.961 99.665 C 280.910 112.699,280.963 112.000,280.020 112.000 C 275.762 112.000,274.212 113.276,273.702 117.200 L 273.363 119.800 272.879 116.600 C 272.130 111.657,271.694 111.519,257.700 111.770 L 250.000 111.908 249.958 109.854 C 249.934 108.724,249.947 107.316,249.985 106.725 C 250.133 104.457,248.677 103.395,246.798 104.401 C 246.297 104.669,245.966 104.669,245.801 104.401 C 245.664 104.180,244.843 104.000,243.976 104.000 L 242.400 104.000 242.358 102.100 C 242.334 101.055,242.347 99.716,242.385 99.125 C 242.507 97.255,241.772 96.411,240.091 96.490 C 239.271 96.529,237.700 96.433,236.600 96.277 C 235.159 96.073,234.824 96.105,235.400 96.393 L 236.200 96.793 235.400 96.692 C 234.667 96.599,234.590 96.246,234.486 92.495 L 234.372 88.400 237.710 88.400 C 242.246 88.400,242.422 88.235,242.298 84.099 L 242.200 80.799 244.200 80.744 C 245.300 80.713,246.843 80.726,247.628 80.771 C 249.374 80.873,250.100 80.115,249.975 78.319 C 249.925 77.593,249.910 76.100,249.941 75.000 L 249.999 73.000 253.259 73.095 C 257.373 73.214,257.570 73.005,257.587 68.500 L 257.600 65.200 260.951 65.200 C 265.548 65.200,265.173 66.876,265.192 46.219 C 265.209 26.513,265.277 27.050,262.804 27.446 C 261.884 27.593,261.194 27.514,261.027 27.243 C 260.867 26.984,259.556 26.803,257.876 26.806 C 256.288 26.810,255.225 26.955,255.503 27.131 C 255.779 27.307,254.744 27.439,253.203 27.425 C 251.662 27.411,250.400 27.265,250.400 27.100 C 250.400 26.935,248.420 26.800,246.000 26.800 C 243.580 26.800,241.599 26.935,241.598 27.100 C 241.597 27.265,240.304 27.431,238.725 27.469 C 236.879 27.513,236.059 27.408,236.427 27.175 C 236.799 26.940,235.910 26.810,233.900 26.806 C 232.059 26.802,230.800 26.965,230.800 27.207 C 230.800 27.437,230.057 27.568,229.100 27.507 L 227.400 27.400 227.507 29.100 C 227.568 30.057,227.437 30.800,227.207 30.800 C 226.982 30.800,226.800 31.743,226.800 32.905 L 226.800 35.011 223.370 34.951 C 220.214 34.896,219.913 34.960,219.595 35.746 C 219.395 36.244,219.240 28.968,219.225 18.300 L 219.200 0.000 200.200 0.000 L 181.200 0.000 181.154 2.100 M219.483 41.695 C 219.387 42.193,219.305 41.880,219.301 41.000 C 219.296 40.120,219.375 39.713,219.475 40.095 C 219.575 40.478,219.579 41.198,219.483 41.695 M285.501 87.700 C 285.173 88.195,284.566 88.645,284.152 88.700 C 283.525 88.783,283.541 88.738,284.244 88.433 C 284.709 88.232,285.198 87.782,285.332 87.433 C 285.466 87.085,285.692 86.800,285.836 86.800 C 285.980 86.800,285.829 87.205,285.501 87.700 M167.482 91.300 C 167.387 91.795,167.309 91.390,167.309 90.400 C 167.309 89.410,167.387 89.005,167.482 89.500 C 167.578 89.995,167.578 90.805,167.482 91.300 M56.199 92.335 C 56.088 92.446,56.272 92.956,56.608 93.468 C 57.475 94.792,57.016 94.627,56.047 93.267 C 55.417 92.381,55.367 92.133,55.820 92.133 C 56.139 92.133,56.309 92.224,56.199 92.335 M375.230 94.658 L 376.200 95.715 375.100 95.012 C 374.495 94.625,374.000 94.149,374.000 93.954 C 374.000 93.410,374.182 93.514,375.230 94.658 M69.200 96.400 C 69.200 96.620,68.345 96.776,67.300 96.747 C 65.444 96.696,65.433 96.688,66.800 96.400 C 68.885 95.961,69.200 95.961,69.200 96.400 M334.367 96.657 C 334.458 96.735,333.783 96.800,332.867 96.800 C 331.950 96.800,331.200 96.631,331.200 96.425 C 331.200 96.092,333.943 96.293,334.367 96.657 M181.200 153.867 C 181.200 164.778,180.966 168.521,180.699 161.886 C 180.542 157.961,180.426 157.863,175.908 157.828 L 172.198 157.800 172.470 154.062 C 172.798 149.553,172.382 149.976,176.536 149.941 C 180.391 149.909,180.920 149.606,180.775 147.519 C 180.637 145.524,180.774 142.400,181.000 142.400 C 181.110 142.400,181.200 147.560,181.200 153.867 M219.476 144.300 C 219.375 144.685,219.293 144.370,219.293 143.600 C 219.293 142.830,219.375 142.515,219.476 142.900 C 219.576 143.285,219.576 143.915,219.476 144.300 M220.523 149.731 C 221.005 149.844,222.643 149.949,224.163 149.964 C 227.538 149.999,227.204 149.591,227.533 154.081 L 227.807 157.837 225.604 157.700 C 222.080 157.480,219.885 158.028,219.556 159.208 C 219.404 159.754,219.286 157.410,219.294 154.000 C 219.302 150.590,219.385 148.188,219.477 148.662 C 219.570 149.139,220.038 149.617,220.523 149.731 M52.202 182.798 C 51.803 183.239,51.330 183.600,51.152 183.600 C 50.974 183.600,51.227 183.186,51.714 182.680 C 52.790 181.563,53.225 181.668,52.202 182.798 M96.683 194.895 C 96.587 195.393,96.505 195.080,96.501 194.200 C 96.496 193.320,96.575 192.913,96.675 193.295 C 96.775 193.678,96.779 194.398,96.683 194.895 M257.600 200.034 C 257.600 203.526,257.516 204.006,256.900 204.048 C 249.777 204.533,250.000 204.664,250.000 199.982 L 250.000 196.051 251.300 195.925 C 252.015 195.856,253.725 195.860,255.100 195.934 L 257.600 196.068 257.600 200.034 M150.074 200.100 L 150.200 204.200 146.800 204.146 C 144.930 204.117,143.175 204.072,142.900 204.046 C 142.536 204.013,142.400 202.909,142.400 200.000 L 142.400 196.000 146.174 196.000 L 149.949 196.000 150.074 200.100 M96.683 206.495 C 96.587 206.993,96.505 206.680,96.501 205.800 C 96.496 204.920,96.575 204.513,96.675 204.895 C 96.775 205.278,96.779 205.998,96.683 206.495 M181.200 246.267 C 181.200 257.419,180.991 260.750,180.709 254.109 C 180.537 250.078,180.669 250.200,176.485 250.200 L 173.039 250.200 172.704 248.600 C 172.520 247.720,172.421 245.948,172.484 244.662 L 172.600 242.325 176.267 242.262 C 180.928 242.183,180.688 242.510,180.781 236.100 C 180.792 235.385,180.890 234.800,181.000 234.800 C 181.110 234.800,181.200 239.960,181.200 246.267 M220.718 242.045 C 221.299 242.266,222.320 242.418,222.987 242.383 C 223.654 242.348,224.990 242.337,225.955 242.359 L 227.711 242.400 227.508 245.953 C 227.245 250.571,227.256 250.557,224.156 250.240 C 220.985 249.915,219.696 250.217,219.477 251.338 C 219.385 251.812,219.309 249.410,219.309 246.000 C 219.309 242.590,219.388 240.215,219.485 240.722 C 219.587 241.255,220.107 241.812,220.718 242.045 M219.476 257.100 C 219.375 257.485,219.293 257.170,219.293 256.400 C 219.293 255.630,219.375 255.315,219.476 255.700 C 219.576 256.085,219.576 256.715,219.476 257.100 M328.092 296.500 C 327.869 296.775,327.598 297.360,327.489 297.800 C 327.297 298.584,327.292 298.583,327.246 297.780 C 327.221 297.329,327.416 296.744,327.680 296.480 C 328.312 295.848,328.610 295.862,328.092 296.500 M328.100 300.265 C 327.825 300.376,327.586 300.857,327.568 301.333 C 327.551 301.810,327.444 301.969,327.331 301.687 C 327.039 300.960,327.480 299.994,328.087 300.032 C 328.489 300.056,328.492 300.107,328.100 300.265 M25.941 306.022 C 26.418 306.786,26.425 306.873,25.975 306.418 C 25.659 306.098,25.130 305.592,24.800 305.293 C 24.314 304.853,24.308 304.778,24.766 304.897 C 25.077 304.978,25.606 305.484,25.941 306.022 M167.487 310.695 C 167.395 311.303,167.317 310.900,167.314 309.800 C 167.311 308.700,167.387 308.203,167.482 308.695 C 167.577 309.186,167.579 310.086,167.487 310.695 M219.483 359.695 C 219.387 360.193,219.305 359.880,219.301 359.000 C 219.296 358.120,219.375 357.713,219.475 358.095 C 219.575 358.478,219.579 359.198,219.483 359.695 " stroke="none" fill="#5c5c5c" fill-rule="evenodd"></path></g></svg>